<svg width="71" height="96" viewBox="0 0 71 96" fill="none" xmlns="http://www.w3.org/2000/svg">
<path d="M29.451 43.5075H1.53815V35.5224C5.65094 31.9183 10.4584 27.5593 13.871 23.3215C16.8426 19.6569 18.7391 17.1936 18.7391 13.0219C18.7391 10.746 17.5372 8.97703 14.8193 8.97703C12.2281 8.97703 10.1386 10.3051 7.16705 12.9558L0 6.50821C5.18784 2.20982 9.9236 0 16.7599 0C25.9888 0 30.7963 5.30687 30.7963 12.7684C30.7963 22.0596 22.8298 28.8213 13.8489 34.7013C15.5843 34.4247 17.3403 34.2974 19.0974 34.321H31.8107L29.451 43.5075Z" fill="#ACA199"/>
<path d="M56.7463 10.7682C56.195 9.05989 55.5445 8.11203 54.5411 8.11203C53.3392 8.11203 52.5839 8.99927 52.0106 10.6415C51.1891 13.1048 50.8749 17.3426 50.8749 22.7155C50.8749 26.8872 51.0623 30.2984 51.5695 32.7011C52.0767 35.2305 52.8982 36.6192 54.2875 36.6192C55.9414 36.6192 56.6912 35.2305 57.1984 32.9545C57.7497 30.2984 57.8931 26.3802 57.8931 21.8283C57.8931 16.8686 57.5127 13.1048 56.7574 10.7682H56.7463ZM54.2599 44.3398C44.8876 44.3398 38.7681 35.8091 38.7681 22.4731C38.7681 7.99632 45.2846 0.474121 54.4529 0.474121C63.8252 0.474121 70.0054 8.12306 70.0054 22.0928C70.0054 35.2415 63.4282 44.3398 54.2599 44.3398" fill="#FEBE26"/>
<path d="M8.11528 95.0385C6.40622 95.0385 3.81505 94.9117 2.17215 94.7244L0.275635 86.3149C1.56828 86.5583 2.88012 86.6855 4.19546 86.6952C12.2887 86.6952 18.0444 84.7389 18.0444 79.0463C18.0444 75.8886 15.3264 75.0675 12.0351 75.0014C10.429 75.0448 8.82614 75.1717 7.23318 75.3816V66.0739C8.65775 66.2765 10.0945 66.3815 11.5334 66.388C16.4015 66.3274 17.857 65.0599 17.857 61.7149C17.857 59.8137 16.2747 58.5517 13.9316 58.5517C10.3316 58.5517 7.60807 59.7531 5.45796 61.9629L0.589878 54.1266C4.84476 51.0744 9.96278 49.4586 15.1996 49.5141C23.9269 49.5141 29.9968 53.9998 29.9968 60.9544C29.9968 65.5063 28.161 68.7907 24.2411 70.6258C28.6516 71.8272 30.9451 75.8059 30.9451 80.2311C30.9451 89.0813 21.457 95.0219 8.11528 95.0219" fill="#009AC6"/>
<path d="M66.6701 92.8343H38.7847V84.8492C42.8975 81.2451 47.6994 76.8806 51.1176 72.6483C54.0891 68.9837 55.9857 66.5149 55.9857 62.3432C55.9857 60.0673 54.7838 58.2983 52.0658 58.2983C49.4747 58.2983 47.3852 59.6264 44.4136 62.2826L37.2466 55.835C42.4289 51.5366 47.1702 49.3213 54.0009 49.3213C63.2354 49.3213 68.0428 54.6337 68.0428 62.0897C68.0428 71.3864 60.0709 78.1481 51.0955 84.0281C52.8309 83.7515 54.5868 83.6242 56.344 83.6478H69.0517L66.6701 92.8343Z" fill="#F0534D"/>
</svg>
