<svg width="270" height="47" viewBox="0 0 270 47" fill="none" xmlns="http://www.w3.org/2000/svg">
<path d="M49.7637 17.661C49.5983 17.7061 49.2075 17.8188 48.952 17.8488C49.4405 17.3754 49.7336 16.7892 49.7336 16.3082C49.5006 16.3834 49.0798 16.5412 48.6965 16.6238C49.4555 15.9775 49.8689 15.2335 49.6885 14.234C49.4555 14.3542 49.1324 14.5421 48.8017 14.6774C49.4631 13.6553 49.4555 12.7535 49.185 12.2274C48.8919 12.5054 48.5312 12.8286 48.1479 13.0616C48.3884 11.8817 48.3809 11.1226 47.8848 10.589C47.3813 11.536 46.9454 12.2499 46.239 13.0916C46.2916 12.3101 46.2089 11.3406 45.6979 10.8295C45.6979 10.8295 45.5551 11.9193 45.1718 12.265C45.0816 11.1978 44.7509 10.6191 44.2625 10.0479C44.2625 10.0479 44.2324 11.1602 43.9318 11.8441C43.6763 10.9197 43.1953 10.1982 42.5865 9.50684C42.6316 11.5585 42.0605 15.4214 40.4146 18.0142C40.2192 19.5548 40.0539 21.8695 37.5438 23.2373C37.183 22.9818 36.5442 22.6587 35.6499 22.7113C35.4169 21.5464 36.935 20.4942 38.2427 19.645C39.5654 18.7883 40.1441 18.0593 40.114 16.9245C40.0839 15.6769 39.2347 15.1659 38.3629 15.1283C37.1304 15.0757 36.1234 16.1955 35.8904 16.6539C35.5372 16.8268 34.4775 17.1499 34.0416 17.2702C33.5606 17.3979 33.0195 17.5933 32.6813 17.8864C32.8842 18.0142 33.4629 18.0593 33.6884 18.0217C34.1092 17.9616 35.4395 17.7136 36.7171 17.5633C37.183 17.8113 37.9345 18.2321 37.1379 18.7883C36.0557 19.4872 35.5898 19.66 34.0566 20.4642C31.6367 21.7343 32.4183 24.9208 33.012 25.1537C33.012 26.2284 33.974 28.1749 34.6278 28.8513C34.9209 30.204 34.5301 32.2181 34.1243 33.0523C33.7861 32.2332 33.2074 30.3318 32.8241 29.2195C33.2149 27.1228 32.5836 26.1984 32.1402 25.8376C31.6968 25.4769 30.9979 25.5746 30.547 26.3036C31.2459 26.2284 31.4789 27.1228 31.4639 28.0471C31.4488 29.1594 31.1632 30.0462 30.3892 30.0537C30.4493 31.0007 31.4714 31.2712 31.9824 30.8128C32.0651 31.0232 32.4784 32.2708 32.8617 33.383C33.0947 34.0444 33.3126 34.6456 33.4629 34.9612C33.6208 35.3145 34.8007 35.3671 34.9434 34.9612C35.1313 34.4201 35.2741 34.0143 35.5672 33.383C35.7927 32.902 36.1008 32.2933 36.5743 31.3839C36.8899 31.9326 37.3108 32.7968 37.5588 33.383C37.6715 33.6536 37.7542 33.8715 37.7617 33.9692C37.8594 34.8711 37.8068 38.0876 37.5588 40.0115C34.9209 39.2901 34.1694 40.5827 34.4023 41.5371C34.7781 41.1163 35.2741 41.1689 35.5823 41.3944C35.5071 42.1008 35.695 42.6043 36.4165 42.8223C37.1755 40.8157 39.896 41.2591 40.1516 41.4319C40.1666 41.0411 40.5273 40.0717 39.1295 39.8687C39.1821 38.1402 39.3625 36.0134 39.4226 35.57C39.4902 35.1266 39.5353 34.8485 39.3249 34.1571C39.2648 33.9467 39.1896 33.6911 39.1069 33.3905C38.9266 32.6916 38.7387 31.7747 38.7237 30.7827C38.9717 31.0232 39.5503 31.2186 39.9487 31.1284C40.2568 32.4361 40.7002 32.0603 40.9332 32.6089C41.0534 32.8945 41.076 33.1576 41.1135 33.3905C41.1436 33.6235 41.1812 33.8189 41.3089 33.9918C42.2408 34.0218 43.0375 33.7964 43.6086 33.3905C43.7815 33.2703 43.9393 33.1275 44.0671 32.9772C43.8341 31.5869 43.4433 30.8954 42.7143 30.0537C42.5264 28.9114 41.9928 27.8668 41.2563 26.9424C42.1807 26.6418 43.1126 25.8902 43.6011 25.3717C44.0445 25.3416 44.548 24.9734 44.5856 24.2519C44.8411 24.2218 45.0591 24.2068 45.262 24.1692C45.2394 23.9738 45.1868 23.6732 45.1568 23.4929C45.495 23.4929 45.8181 23.4778 46.1338 23.4478C46.0436 23.1847 45.9233 22.9142 45.8256 22.7113C46.1638 22.7113 46.5847 22.6887 46.9229 22.6662C46.7425 22.328 46.6072 22.0349 46.502 21.7343C46.8928 21.6967 47.494 21.599 47.9901 21.4787C47.8322 21.3134 47.6519 21.1406 47.3813 20.8775C48.6664 20.5018 49.2301 19.5999 49.2902 19.2091C49.1023 19.2091 48.7115 19.2918 48.4786 19.2768C49.2 18.8559 49.681 18.2772 49.7637 17.661Z" fill="black" fill-opacity="0.6"/>
<path d="M31.7568 20.5469H15.4937V26.5515C15.5688 26.5966 15.6364 26.6492 15.7116 26.7168V20.8024H31.892V26.3035C31.9522 26.3636 32.0048 26.4387 32.0574 26.5364V20.5469H31.7568Z" fill="black" fill-opacity="0.6"/>
<path d="M23.753 41.2518C16.5759 38.5763 15.6665 32.6918 15.6364 30.0239L15.6139 30.0164L15.6364 29.821C15.6364 29.2423 15.6815 28.8515 15.7041 28.7087C15.6815 28.3254 15.6289 28.0248 15.5613 27.8069L15.4937 27.6641V30.4372C15.4937 33.5411 16.6285 36.2165 18.8755 38.3885C20.837 40.2898 23.0466 41.1767 23.6778 41.4021L23.7755 41.4397L23.8808 41.4021C24.512 41.1767 26.7215 40.2898 28.683 38.3885C30.9226 36.2165 32.0649 33.5411 32.0649 30.4372V29.9337C32.0048 30.0239 31.9522 30.084 31.8921 30.1516C31.8245 31.542 31.5689 33.7064 30.6445 35.3372C29.5248 37.6144 27.8188 39.4932 23.753 41.2518Z" fill="black" fill-opacity="0.6"/>
<path d="M10.8642 4.3135C11.8863 4.80951 12.217 3.89263 14.1259 5.12516C12.8633 5.52347 11.8863 7.09419 10.4584 6.68836C11.4805 6.17731 11.3753 5.43329 11.969 5.05752C11.5932 5.01243 10.8492 4.83957 10.8642 4.3135ZM14.5392 14.4818C13.9305 14.2338 12.9835 14.0685 12.4575 14.8125C12.1719 14.3165 12.5927 13.5649 12.8633 13.347C11.5181 13.3695 10.759 12.9637 10.5636 12.5504C11.0596 12.2798 12.3147 11.8214 13.3368 12.5729C14.0432 13.0915 14.4039 13.3395 15.2381 13.6176C15.5387 13.3169 15.426 13.4522 15.5237 13.362C14.8398 12.8886 14.5317 9.23608 13.1864 9.09329C13.3818 8.63485 14.0733 8.67242 14.6369 8.82273C14.6745 8.00355 14.3363 6.6583 13.8328 5.8767C14.6144 5.46335 15.1479 5.91427 15.426 6.88376C15.7116 7.91337 15.3734 10.4911 16.0498 12.8209L16.4706 12.4301C16.2602 11.0774 17.7482 10.5738 18.0714 9.90495C18.1992 10.8143 18.0113 11.2201 17.7558 11.5508C18.2969 11.6109 18.5373 12.1445 18.4547 12.5128C17.1545 12.3249 16.403 13.6251 16.6961 14.6547C15.7266 14.8576 15.0653 14.6998 14.5392 14.4818ZM20.8821 15.2334C19.7623 15.2935 18.6651 16.7515 19.1311 18.4124C18.9657 18.4725 18.4772 18.465 18.3194 18.1268C18.1992 18.6679 17.1019 19.2842 16.3053 19.2015C16.7487 18.728 17.0493 17.6458 17.9061 17.0821C18.7703 16.511 19.1611 16.1202 19.4692 15.1507C19.0709 15.3386 16.9742 15.8797 16.388 15.2334C17.7633 15.0304 19.3866 14.2564 20.1907 13.7528L19.8751 13.4146C19.0108 13.9031 17.861 14.3015 17.2748 14.4818C17.0643 12.7608 18.7027 12.8284 18.8304 13.2944C19.5068 12.4902 19.0334 11.3404 18.5298 11.2126C19.0409 9.83731 18.5298 8.99559 18.0939 8.49205C17.9887 9.95004 16.3654 10.183 16.17 11.3028C16.1099 10.416 16.0498 8.01107 15.9821 6.84618C15.8544 4.67424 13.1113 3.90767 12.6904 3.90767C10.8943 3.99033 10.7289 3.75736 10.774 2.93066C9.86468 3.96779 10.1728 4.88467 10.9469 5.32807C10.8417 5.95185 9.84214 6.43284 9.2334 6.56811C10.6914 7.92088 12.3823 7.11674 13.194 6.35017L13.3668 6.19234C13.6599 6.71091 13.8703 7.65033 13.8703 8.18392C12.5101 8.10877 12.2621 9.16844 12.2621 9.54421C13.9906 8.82273 14.186 12.1445 14.6369 12.6781C14.1935 12.6481 13.4119 11.6185 12.2621 11.5508C10.8717 11.4606 10.3832 12.2047 9.81959 12.1746C9.92481 13.1591 11.1197 13.7077 11.8863 13.8205C11.4955 14.82 11.8412 15.5039 12.6529 15.7519C12.6529 14.835 13.8102 14.5495 15.0578 15.2785C16.5533 16.1502 17.3199 16.2254 18.5223 15.8571C18.3269 16.293 17.7858 16.3381 17.117 16.9844C16.1851 17.9013 16.155 19.0963 15.1179 19.5322C16.3354 20.1109 18.1691 19.2992 18.4321 18.8332C18.9432 19.1489 19.597 18.961 19.7699 18.6454C18.9432 16.8191 20.341 15.7294 20.8896 15.7519C20.9047 15.7594 21.1452 15.2108 20.8821 15.2334Z" fill="black" fill-opacity="0.6"/>
<path d="M33.5229 5.30593C34.1391 4.86253 34.5224 4.67465 34.8456 4.47926C35.3716 4.5018 36.281 4.43416 36.8296 4.16361C36.2585 4.86253 36.1983 5.11805 35.2664 5.21575C36.4689 5.32097 36.9799 6.40316 37.5736 6.5685C35.5595 7.18475 35.3566 5.18569 33.5229 5.30593ZM36.0029 11.3181C36.6042 11.8142 36.4088 12.5131 36.266 12.6709C35.7399 11.7615 34.0489 12.0772 32.388 13.9485C32.2753 14.0913 32.1175 14.2491 31.9296 14.4144C32.0574 12.1749 30.2311 12.1373 29.69 12.3628C29.7501 11.7165 30.1485 11.2731 30.3664 11.2129C29.8253 10.5892 29.7126 9.80006 29.6449 9.2289C30.5393 9.6197 31.8695 10.6643 32.0949 12.4755L32.6736 12.0847C32.5008 8.92829 32.5383 8.94332 32.5158 6.79396C32.5158 6.49335 32.5308 5.79443 33.4778 5.86958C33.5153 6.6662 33.6431 8.7855 33.598 11.724H33.9362C34.2443 10.9048 35.3265 9.93534 36.5966 10.0255C37.4609 10.0856 37.7615 10.0631 38.2575 9.84516C37.8592 10.8146 36.3862 11.2505 36.0029 11.3181ZM34.1767 10.2134C34.1767 8.17677 34.1015 6.50086 34.079 5.97479L34.327 6.04995C35.785 6.56098 36.1232 8.31956 39.1368 6.32801C37.521 6.51589 37.4384 5.14811 36.7019 5.11805C37.8217 4.48677 37.8968 3.02881 37.8968 3.02881C36.9574 3.78785 34.7854 3.83294 34.3571 4.08095C33.7934 4.41913 33.087 4.83247 32.606 5.09551C31.3509 5.7794 32.2227 9.49945 32.1025 10.8597C31.4261 8.8306 30.0583 9.13872 29.3368 7.98137C28.7957 8.95084 29.3669 10.5741 29.5923 11.0401C28.8107 11.6714 29.0212 12.8437 29.209 13.1594C29.8779 12.6784 30.9075 12.8062 31.2232 13.6028C30.3439 14.1364 28.8784 14.2341 27.8788 13.2646L27.5181 13.6629C28.2245 14.5948 29.9982 14.9631 31.3133 14.204C31.3058 14.4144 31.2607 14.6549 31.1706 14.918C30.4867 15.2787 29.5998 15.4741 28.5928 15.1284C28.7281 16.1505 29.9005 16.9095 31.0202 17.2176C30.6445 17.5107 30.1785 17.631 29.8403 17.5859C30.0508 18.1721 30.171 18.9687 29.7276 19.5925C29.1715 19.2242 28.8708 18.856 28.6604 17.4205C28.4425 15.9851 27.4129 14.5272 26.6087 14.2266C26.5636 14.7376 26.5636 14.5121 26.6538 14.8428C28.7882 16.406 27.5782 19.2242 29.7952 20.2388C30.6069 19.3144 30.6219 18.9837 30.4942 18.1119C31.2983 17.9015 31.892 17.2251 32.11 16.7066C31.3509 17.0673 30.1485 16.436 29.8103 15.94C31.133 15.8949 32.3505 14.9029 33.598 13.5953C34.7178 12.4229 36.2058 12.6033 36.0931 13.5201C36.8672 13.4074 37.1678 12.3477 36.9123 11.6714C38.0471 11.3181 38.9339 10.4764 39.0542 9.16878C37.5361 9.92782 35.6121 8.67277 34.1767 10.2134Z" fill="black" fill-opacity="0.6"/>
<path d="M25.9624 17.1499C25.8572 17.1499 25.767 17.2026 25.7069 17.2777L25.3462 17.2251L25.3537 16.5712C25.4739 16.5186 25.5491 16.4059 25.5491 16.2706C25.5491 16.0903 25.4063 15.9399 25.2259 15.9399C25.0456 15.9399 24.9028 16.0903 24.9028 16.2706C24.9028 16.3984 24.9704 16.5036 25.0681 16.5562L25.0606 17.1875L24.7149 17.1575C24.6698 17.0372 24.5495 16.9621 24.4218 16.9621C24.2414 16.9621 24.0986 17.1048 24.0986 17.2852C24.0986 17.4656 24.2414 17.6084 24.4218 17.6084C24.5345 17.6084 24.6397 17.5483 24.6923 17.4581L25.0606 17.4957L25.0531 18.4501C24.9479 18.5027 24.8802 18.6155 24.8802 18.7357C24.8802 18.9161 25.023 19.0664 25.2034 19.0664C25.3837 19.0664 25.534 18.9161 25.534 18.7357C25.534 18.608 25.4514 18.4877 25.3387 18.4426L25.3462 17.5332L25.6543 17.5783C25.6994 17.7061 25.8196 17.7963 25.9624 17.7963C26.1428 17.7963 26.2931 17.6535 26.2931 17.4731C26.2856 17.3003 26.1428 17.1499 25.9624 17.1499Z" fill="black" fill-opacity="0.6"/>
<path d="M23.1292 16.9621C22.9939 16.9621 22.8812 17.0372 22.8286 17.1575L22.4904 17.1875L22.4829 16.5562C22.5806 16.5036 22.6557 16.3909 22.6557 16.2706C22.6557 16.0903 22.5054 15.9399 22.3325 15.9399C22.1522 15.9399 22.0019 16.0903 22.0019 16.2706C22.0019 16.4059 22.0845 16.5186 22.1973 16.5713L22.2048 17.2251L21.8441 17.2777C21.7839 17.2026 21.6938 17.15 21.5885 17.15C21.4082 17.15 21.2654 17.2928 21.2654 17.4807C21.2654 17.661 21.4082 17.8038 21.5885 17.8038C21.7313 17.8038 21.8516 17.7136 21.8967 17.5859L22.2048 17.5408L22.2123 18.4502C22.0996 18.5028 22.0244 18.6155 22.0244 18.7433C22.0244 18.9237 22.1672 19.074 22.3476 19.074C22.5279 19.074 22.6783 18.9237 22.6783 18.7433C22.6783 18.6155 22.6031 18.5103 22.4979 18.4577L22.4904 17.5032L22.8511 17.4656C22.9112 17.5558 23.0089 17.6159 23.1292 17.6159C23.3095 17.6159 23.4598 17.4656 23.4598 17.2928C23.4598 17.1124 23.3095 16.9621 23.1292 16.9621Z" fill="black" fill-opacity="0.6"/>
<path d="M23.7755 19.7273C23.287 20.6592 22.3851 20.6291 21.596 20.1106C21.2804 19.9002 20.9572 19.7649 20.6566 19.7198C20.7919 18.803 21.0173 17.082 21.1827 15.6241C22.2048 15.1656 23.4598 15.0529 23.7755 16.2328C24.0836 15.0529 25.3462 15.1656 26.3607 15.6241C26.5261 17.082 26.7515 18.803 26.8868 19.7198C26.5937 19.7649 26.263 19.9077 25.9474 20.1106C25.1658 20.6291 24.2564 20.6592 23.7755 19.7273ZM27.4655 19.7574C27.2701 18.4422 26.7966 14.7598 26.7365 13.5273L26.1728 13.5499C26.1804 13.7603 26.2029 14.0384 26.233 14.3615C25.5566 14.1586 24.6773 14.0233 23.7755 14.0233C22.8736 14.0233 21.9868 14.1586 21.3179 14.3615C21.348 14.0384 21.3706 13.7603 21.3781 13.5499L20.8144 13.5273C20.7618 14.7598 20.2883 18.4422 20.0854 19.7574C19.7472 19.8851 19.5293 20.2233 19.5293 20.8245C19.5293 20.8245 22.588 20.8696 23.7755 20.8696C24.9629 20.8696 28.0141 20.8245 28.0141 20.8245C28.0216 20.2233 27.7962 19.8927 27.4655 19.7574Z" fill="black" fill-opacity="0.6"/>
<path d="M40.2941 46.0389H7.25668C7.10637 44.9868 6.91098 44.3104 6.73061 43.7468H40.8126C40.6398 44.3104 40.4369 44.9868 40.2941 46.0389ZM17.9059 38.9671C18.214 39.418 18.4996 39.7487 18.6424 40.1094C18.7852 40.4852 18.695 40.7181 18.417 41.1014C17.7932 41.9807 16.7035 42.7322 15.8467 43.1982H12.54C14.6142 42.612 17.4249 40.8309 17.9059 38.9671ZM15.8993 38.3508C16.1699 37.8473 16.8237 37.6895 17.2746 38.2832C17.4625 38.5387 17.3798 39.2151 16.5982 40.0643C16.0271 39.5533 15.6062 38.8919 15.8993 38.3508ZM29.0962 41.1014C28.8182 40.7106 28.728 40.4852 28.8708 40.1094C29.0136 39.7487 29.2992 39.418 29.6073 38.9671C30.0883 40.8309 32.899 42.612 34.9807 43.2057H31.6665C30.8097 42.7322 29.7275 41.9807 29.0962 41.1014ZM30.2386 38.2907C30.6895 37.697 31.3433 37.8548 31.6139 38.3583C31.8995 38.8919 31.4861 39.5533 30.9149 40.0718C30.1334 39.2226 30.0507 38.5462 30.2386 38.2907ZM40.9479 43.0328C40.5947 43.138 40.1663 43.1982 39.52 43.1982H38.7234C35.9803 43.1456 33.147 42.3264 31.4185 40.5528C33.8084 38.1404 30.9976 36.1564 29.4795 38.2005C29.0061 38.8393 28.6303 39.2977 28.2996 39.914C28.0366 40.4175 28.232 40.9135 28.8257 41.6876C29.1488 42.1084 29.9605 42.7698 30.6219 43.1982H16.8913C17.5527 42.7698 18.3568 42.116 18.6875 41.6876C19.2737 40.921 19.4841 40.4175 19.2136 39.914C18.8829 39.2902 18.4996 38.8393 18.0262 38.2005C16.5081 36.1564 13.6973 38.1404 16.0872 40.5528C14.3587 42.3264 11.5329 43.1456 8.78229 43.1982H8.02325C7.37693 43.1982 6.94855 43.1305 6.59533 43.0328C6.02417 42.8975 5.89641 43.138 6.20453 44.1225C6.41496 44.7764 6.5803 45.8435 6.65545 46.5725H40.8878C40.9629 45.836 41.1283 44.7688 41.3387 44.1225C41.6393 43.138 41.5191 42.8975 40.9479 43.0328Z" fill="black" fill-opacity="0.6"/>
<path d="M11.2099 45.1896L11.2024 45.1745L11.4504 44.5207L11.4654 44.5057L11.4729 44.5207L11.7134 45.1745L11.7059 45.1896H11.2099ZM11.7359 45.2873L11.7585 45.3023L11.8487 45.5428L11.8336 45.5879L11.8036 45.6029L11.8637 45.6179H12.232L12.3221 45.6029L12.2996 45.5879L12.2169 45.5803C12.1718 45.5653 12.1192 45.5428 12.0441 45.3699C11.9163 45.0693 11.6007 44.2727 11.5631 44.1675L11.5105 44.1074L11.4579 44.1901L10.9694 45.415C10.9318 45.5127 10.8942 45.5803 10.8041 45.5879H10.7364L10.7139 45.6029L10.7514 45.6179H10.9844H11.1948L11.2249 45.6029L11.1948 45.5879H11.1648C11.1047 45.5879 11.0896 45.5653 11.0896 45.5277L11.1197 45.415L11.1573 45.3023L11.1723 45.2873H11.7359Z" fill="black" fill-opacity="0.6"/>
<path d="M12.7129 45.0018C12.7129 45.2874 12.7881 45.4302 12.8858 45.5205C13.0286 45.6482 13.2164 45.6558 13.3217 45.6558C13.4494 45.6558 13.5922 45.6407 13.7275 45.5129C13.8928 45.3776 13.9154 45.1446 13.9154 44.9266V44.7161V44.3027C13.9229 44.235 13.9304 44.1974 13.983 44.1899L14.0431 44.1824L14.0807 44.1674L14.0431 44.1523H13.8177H13.5997L13.5546 44.1674L13.5922 44.1824L13.6598 44.1899C13.7275 44.205 13.7425 44.235 13.7425 44.3027V44.7161V44.9642C13.7425 45.1671 13.735 45.34 13.6298 45.4528C13.5471 45.528 13.4419 45.558 13.3592 45.558C13.2916 45.558 13.2014 45.543 13.1112 45.4754C13.0135 45.3927 12.9609 45.2799 12.9609 44.9943V44.7161V44.3027C12.9684 44.235 12.9835 44.1974 13.0361 44.1899L13.0962 44.1824L13.1263 44.1674L13.0812 44.1523H12.8407H12.5551L12.51 44.1674L12.5476 44.1824L12.6227 44.1899C12.6904 44.205 12.7054 44.235 12.7054 44.3027L12.7129 44.7161V45.0018Z" fill="black" fill-opacity="0.6"/>
<path d="M14.9901 44.6786V44.2879L15.0126 44.2503L15.1404 44.2353C15.2982 44.2353 15.5161 44.2578 15.6965 44.4307C15.7792 44.5133 15.8844 44.6711 15.8844 44.9191C15.8844 45.122 15.8468 45.3023 15.719 45.4075C15.5988 45.5052 15.471 45.5503 15.2681 45.5503C15.1103 45.5503 15.0352 45.5052 15.0126 45.4751L14.9901 45.3248V44.9266V44.6786ZM14.7421 45.0543C14.7421 45.2347 14.7421 45.3925 14.7346 45.4751C14.727 45.5352 14.7195 45.5728 14.682 45.5878L14.6143 45.5954L14.5843 45.6104L14.6218 45.6254H14.8698L15.2907 45.6479C15.6514 45.6479 15.8543 45.5127 15.9445 45.415C16.0572 45.3023 16.1549 45.1144 16.1549 44.874C16.1549 44.6411 16.0647 44.4757 15.967 44.3781C15.7566 44.1602 15.4259 44.1602 15.1855 44.1602H14.8849H14.5993L14.5542 44.1752L14.5843 44.1902L14.6669 44.1977C14.727 44.2128 14.7421 44.2428 14.7496 44.3104L14.7571 44.7237L14.7421 45.0543Z" fill="black" fill-opacity="0.6"/>
<path d="M16.9065 45.1896L16.899 45.1745L17.1395 44.5207L17.147 44.5057L17.1546 44.5207L17.395 45.1745L17.3875 45.1896C17.395 45.1896 16.9065 45.1896 16.9065 45.1896ZM17.4326 45.2873L17.4477 45.3023L17.5378 45.5428L17.5153 45.5879L17.4852 45.6029L17.5454 45.6179H17.9136L18.0038 45.6029L17.9737 45.5879L17.8911 45.5803C17.846 45.5653 17.7934 45.5428 17.7257 45.3699C17.598 45.0693 17.2823 44.2727 17.2372 44.1675L17.1921 44.1074L17.1395 44.1901L16.6435 45.415C16.6059 45.5127 16.5684 45.5803 16.4782 45.5879H16.4181L16.3955 45.6029L16.4331 45.6179H16.6661H16.869L16.899 45.6029L16.869 45.5879H16.8389C16.7788 45.5879 16.7638 45.5653 16.7638 45.5277L16.7938 45.415L16.8389 45.3023L16.8615 45.2873H17.4326Z" fill="black" fill-opacity="0.6"/>
<path d="M19.3489 44.3478C19.4091 44.2576 19.4466 44.205 19.4917 44.1899L19.5594 44.1824L19.5894 44.1674L19.5518 44.1523H19.3565H19.1611L19.1235 44.1674L19.146 44.1824L19.2137 44.1899L19.2437 44.22L19.2212 44.2952L18.9506 44.7086L18.7026 44.2726L18.6801 44.22L18.7026 44.1899L18.7553 44.1824L18.7853 44.1674L18.7477 44.1523H18.5373H18.2367L18.1991 44.1674L18.2142 44.1899L18.2968 44.205C18.3645 44.2275 18.4096 44.2726 18.4547 44.3478L18.7928 44.904L18.4171 45.4377C18.3494 45.5354 18.3119 45.573 18.2593 45.588L18.1841 45.5955L18.1541 45.6106L18.1841 45.6256H18.2217H18.387H18.5749H18.6125L18.65 45.6106L18.6275 45.5955H18.5824L18.5448 45.5655L18.5749 45.4828L18.868 45.0167L19.1761 45.5504L19.1686 45.5955L19.1385 45.6181L19.2062 45.6406H19.5518H19.612L19.6495 45.6256L19.627 45.6106L19.5518 45.603C19.4992 45.588 19.4692 45.5655 19.4391 45.5204C19.394 45.4602 19.0709 44.9266 19.0108 44.8364L19.3489 44.3478Z" fill="black" fill-opacity="0.6"/>
<path d="M22.017 45.1896L22.0095 45.1745L22.25 44.5207L22.265 44.5057L22.2726 44.5207L22.5206 45.1745L22.5131 45.1896H22.017ZM22.5431 45.2873L22.5582 45.3023L22.6483 45.5428L22.6333 45.5879L22.6032 45.6029L22.6634 45.6179H23.0316L23.1218 45.6029L23.0993 45.5879L23.0166 45.5803C22.979 45.5653 22.9189 45.5428 22.8437 45.3699C22.716 45.0693 22.4078 44.2727 22.3627 44.1675L22.3101 44.1074L22.2575 44.1901L21.769 45.415C21.7314 45.5127 21.6939 45.5803 21.6037 45.5879H21.5435L21.521 45.6029L21.5586 45.6179H21.7916H21.9945L22.0245 45.6029L21.9945 45.5879H21.9644C21.9043 45.5879 21.8893 45.5653 21.8893 45.5277L21.9193 45.415L21.9569 45.3023L21.9719 45.2873H22.5431Z" fill="black" fill-opacity="0.6"/>
<path d="M23.7455 45.0541C23.7455 45.2344 23.7455 45.3921 23.738 45.4748C23.7305 45.5349 23.723 45.5724 23.6854 45.5874L23.6177 45.595L23.5877 45.61L23.6253 45.625H23.8733H24.1814L24.2115 45.61L24.1814 45.595L24.0837 45.5874C24.0236 45.5799 24.0085 45.5349 24.0085 45.4823C24.001 45.3996 24.001 45.2419 24.001 45.0616V44.2654L24.249 44.2729C24.4219 44.2804 24.4745 44.333 24.482 44.3856V44.4081L24.5046 44.4457L24.5196 44.4156L24.5271 44.1903L24.5121 44.1527L24.3242 44.1677H23.5501L23.3547 44.1602L23.272 44.1377L23.2495 44.1753L23.2119 44.4006L23.2269 44.4306L23.2495 44.4081L23.2796 44.333C23.3096 44.2879 23.3547 44.2804 23.4674 44.2804L23.7605 44.2729L23.7455 45.0541Z" fill="black" fill-opacity="0.6"/>
<path d="M27.1498 44.9039L27.1649 44.8889L27.4505 44.8964C27.5106 44.9039 27.5406 44.9415 27.5482 44.964L27.5557 45.0241L27.5707 45.0467L27.5857 45.0091L27.5933 44.8663L27.6083 44.7461L27.5933 44.7311L27.5707 44.7536L27.4805 44.7837H27.3979H27.1498L27.1348 44.7611V44.2727L27.1574 44.2426L27.458 44.2501C27.5331 44.2501 27.5707 44.2802 27.5857 44.3102L27.5933 44.3854L27.6158 44.4154L27.6383 44.3929L27.6459 44.2351L27.6609 44.1449L27.6459 44.1299L27.6158 44.1449L27.5331 44.1524H27.0146H26.7365L26.6914 44.1675L26.7215 44.1825L26.7966 44.19C26.8567 44.205 26.8718 44.2351 26.8793 44.3027L26.8868 44.716V45.0617C26.8868 45.2496 26.8868 45.3999 26.8793 45.4825C26.8718 45.5426 26.8643 45.5802 26.8192 45.5952L26.7515 45.6028L26.7215 45.6178L26.7666 45.6328H27.0146H27.3152L27.3603 45.6178L27.3302 45.6028L27.2325 45.5952C27.1724 45.5877 27.1574 45.5426 27.1574 45.4825C27.1498 45.3999 27.1498 45.2571 27.1498 45.0617V44.9039Z" fill="black" fill-opacity="0.6"/>
<path d="M28.4051 45.0545L28.3976 45.4829C28.3901 45.5355 28.375 45.5731 28.3375 45.5806L28.2698 45.5881L28.2397 45.6031L28.2773 45.6182H28.5254H28.8335L28.8711 45.6031L28.841 45.5881L28.7358 45.5806C28.6757 45.5731 28.6606 45.5355 28.6606 45.4829L28.6531 45.0545V44.7088V44.2955C28.6606 44.2279 28.6682 44.1903 28.7283 44.1828L28.7884 44.1753L28.8185 44.1527L28.7734 44.1377H28.5329H28.2848L28.2397 44.1527L28.2698 44.1753L28.3375 44.1828C28.3826 44.1978 28.3976 44.2279 28.4051 44.2955V44.7088V45.0545Z" fill="black" fill-opacity="0.6"/>
<path d="M29.8179 44.6786V44.2879L29.848 44.2503L29.9757 44.2353C30.1336 44.2353 30.3515 44.2578 30.5319 44.4307C30.6145 44.5133 30.7198 44.6711 30.7198 44.9191C30.7198 45.122 30.6822 45.3023 30.5544 45.4075C30.4342 45.5052 30.3064 45.5503 30.1035 45.5503C29.9457 45.5503 29.8705 45.5052 29.848 45.4751L29.8254 45.3248L29.8179 44.9266V44.6786ZM29.5774 45.0543C29.5774 45.2347 29.5774 45.3925 29.5624 45.4751C29.5549 45.5352 29.5474 45.5728 29.5098 45.5878L29.4346 45.5954L29.4046 45.6104L29.4497 45.6254H29.6977L30.111 45.6479C30.4717 45.6479 30.6747 45.5127 30.7648 45.415C30.8776 45.3023 30.9828 45.1144 30.9828 44.874C30.9828 44.6411 30.8926 44.4757 30.7874 44.3781C30.577 44.1602 30.2463 44.1602 30.0058 44.1602H29.7052H29.4196L29.3745 44.1752L29.4121 44.1902L29.4872 44.1977C29.5474 44.2128 29.5624 44.2428 29.5699 44.3104L29.5774 44.7237V45.0543Z" fill="black" fill-opacity="0.6"/>
<path d="M31.6667 45.0544L31.6592 45.4753C31.6516 45.5354 31.6441 45.5729 31.599 45.588L31.5239 45.5955L31.4938 45.6105L31.5314 45.6255H31.7794L32.3205 45.6331C32.3957 45.6331 32.4107 45.6331 32.4257 45.5805L32.4558 45.3625L32.4408 45.325L32.4182 45.355C32.4032 45.4302 32.3807 45.4753 32.328 45.4978C32.2754 45.5203 32.2003 45.5203 32.1477 45.5203C31.9523 45.5203 31.9147 45.4903 31.9147 45.355V44.8966L31.9297 44.8741L32.2078 44.8816C32.283 44.8891 32.3055 44.9192 32.3205 44.9568V45.0394L32.3356 45.0544L32.3506 45.0169L32.3581 44.8891L32.3731 44.7464L32.3581 44.7313L32.328 44.7539L32.2303 44.7839L31.9147 44.7914L31.8997 44.7689V44.273L31.9147 44.2579L32.1928 44.2654C32.2905 44.273 32.313 44.2955 32.3205 44.3331L32.3356 44.4007L32.3506 44.4308L32.3656 44.4082L32.3731 44.2805L32.3882 44.1527L32.3731 44.1377L32.3431 44.1452L32.2604 44.1602H31.7719H31.4938L31.4487 44.1753L31.4788 44.1903L31.5539 44.1978C31.6216 44.2128 31.6366 44.2429 31.6366 44.3105V44.7238L31.6667 45.0544Z" fill="black" fill-opacity="0.6"/>
<path d="M33.4326 44.7161V44.3027C33.4401 44.235 33.4552 44.1974 33.5078 44.1899L33.5829 44.1824L33.613 44.1674L33.5754 44.1523H33.3124H33.0493L33.0117 44.1674L33.0418 44.1824L33.1094 44.1899C33.1696 44.205 33.1846 44.235 33.1921 44.3027L33.1996 44.7161V45.0618C33.1996 45.2422 33.1996 45.4001 33.1921 45.4828C33.1846 45.5429 33.1771 45.5805 33.132 45.5955L33.0643 45.603L33.0343 45.6181L33.0718 45.6331H33.3199L33.8911 45.6406C33.9888 45.6406 34.0038 45.6331 34.0113 45.588L34.0414 45.3625L34.0263 45.3324L34.0038 45.3625L33.9512 45.4828C33.9061 45.5354 33.8234 45.5354 33.7182 45.5354C33.5679 45.5354 33.5153 45.5204 33.4852 45.4903C33.4476 45.4527 33.4476 45.3174 33.4476 45.0694L33.4326 44.7161Z" fill="black" fill-opacity="0.6"/>
<path d="M34.6502 45.0545L34.6426 45.4829C34.6351 45.5355 34.6201 45.5731 34.5825 45.5806L34.5074 45.5881L34.4773 45.6031L34.5149 45.6182H34.7629H35.0711L35.1086 45.6031L35.0711 45.5881L34.9734 45.5806C34.9132 45.5731 34.8982 45.5355 34.8982 45.4829C34.8907 45.4002 34.8907 45.2424 34.8907 45.0545V44.7088L34.8982 44.2955C34.9057 44.2279 34.9207 44.1903 34.9734 44.1828L35.0335 44.1753L35.0635 44.1527L35.026 44.1377H34.7855H34.5299L34.4848 44.1527L34.5149 44.1753L34.59 44.1828C34.6351 44.1978 34.6502 44.2279 34.6577 44.2955V44.7088V45.0545" fill="black" fill-opacity="0.6"/>
<path d="M35.9955 45.6555C36.1008 45.6555 36.2135 45.6405 36.3112 45.5729C36.454 45.4827 36.4916 45.3475 36.4916 45.2348C36.4916 45.0545 36.4014 44.9193 36.1684 44.739L36.1158 44.694C35.958 44.5738 35.9129 44.5062 35.9129 44.416C35.9129 44.2958 36.0031 44.2132 36.1459 44.2132C36.2736 44.2132 36.3262 44.2733 36.3563 44.3108C36.4014 44.3634 36.4089 44.4235 36.4089 44.4386L36.4315 44.4686L36.454 44.4085L36.4615 44.1756L36.4315 44.1531C36.3788 44.1381 36.2962 44.123 36.1684 44.123C35.8978 44.123 35.7175 44.2808 35.7175 44.4911C35.7175 44.6489 35.7926 44.7916 36.0031 44.9569L36.0932 45.0245C36.2586 45.1522 36.2811 45.2424 36.2811 45.34C36.2811 45.4377 36.1985 45.5579 36.0181 45.5579C35.8978 45.5579 35.7851 45.5053 35.74 45.3625L35.7175 45.2649L35.7024 45.2273L35.6799 45.2799L35.6724 45.5353L35.7099 45.6029C35.7926 45.6405 35.8828 45.6555 35.9955 45.6555Z" fill="black" fill-opacity="0.6"/>
<path d="M23.7756 11.4833C22.7536 11.4833 21.5962 11.7238 20.7094 12.1146C20.7244 11.9192 20.7921 11.7463 20.9198 11.596C21.4384 10.9723 22.7836 10.7543 23.7756 10.7543C24.7752 10.7543 26.1204 10.9798 26.6315 11.596C26.7592 11.7463 26.8269 11.9192 26.8419 12.1146C25.9551 11.7238 24.8128 11.4833 23.7756 11.4833ZM25.5192 12.9262L25.2036 12.1973C25.6845 12.2874 26.1505 12.4302 26.5488 12.6031L26.7367 13.3546C26.4361 13.2344 26.0227 13.0615 25.5192 12.9262ZM22.5206 12.8135L21.9795 12.2799C22.4229 12.1672 22.8963 12.092 23.3548 12.062L23.6779 12.6933C23.2571 12.7008 22.8738 12.7459 22.5206 12.8135ZM20.747 13.3847L20.5891 13.4523C20.3712 13.535 20.2209 13.4673 20.1683 13.3621C20.1082 13.2494 20.1457 13.0615 20.4163 12.8962L20.529 12.8361L21.0476 13.2569L20.747 13.3847ZM23.7756 9.53686L24.5122 10.0704C24.1965 10.0404 23.9335 10.0329 23.7756 10.0329C23.6178 10.0329 23.3548 10.0404 23.0391 10.0704L23.7756 9.53686ZM22.9339 7.58289C22.6333 6.92906 22.5506 6.07232 23.475 6.48566L23.5502 7.58289H22.9339ZM23.6404 5.21559L23.7756 5.31328L23.9109 5.21559L24.4445 4.82479L24.1364 5.8619L24.1063 5.86941C24.0537 5.74165 23.926 5.65147 23.7756 5.65147C23.6253 5.65147 23.5051 5.73414 23.445 5.86941L23.4149 5.8619L23.1068 4.82479L23.6404 5.21559ZM24.4295 9.44667L23.9034 9.06339L23.7681 8.9657L23.6329 9.06339L23.1068 9.44667L23.445 8.34193H24.0838L24.4295 9.44667ZM24.6174 7.58289H24.0011L24.0763 6.48566C25.0006 6.07232 24.918 6.92906 24.6174 7.58289ZM21.5135 7.83841L21.8968 7.31234L21.9945 7.17707L21.8968 7.04179L21.5135 6.51572L22.2951 6.75621C22.3402 7.0944 22.4154 7.31986 22.498 7.53028L21.5135 7.83841ZM25.2637 6.76373L26.0453 6.52324L25.662 7.04931L25.5643 7.18458L25.662 7.31986L26.0453 7.84592L25.0608 7.54531C25.1434 7.32737 25.2186 7.10191 25.2637 6.76373ZM30.1186 5.4185C30.1336 5.1254 29.5925 4.89994 29.4572 4.89243C29.2318 4.8774 28.9387 5.35838 28.6456 5.65147C28.3826 4.24612 28.5178 3.6449 28.6681 3.02113C29.2619 4.09581 30.0585 4.32879 30.4869 4.27618C29.0589 3.14138 29.3069 2.10427 28.8711 2.04415C28.623 2.0216 28.4427 2.03663 28.3224 2.03663C27.8189 2.03663 27.7513 3.0061 27.6911 3.4495C27.368 2.84828 27.0448 2.33724 26.4962 1.64584C25.9701 0.293095 25.3238 0.631281 24.67 0.0225458C25.181 0.796617 24.7677 1.27008 25.9476 1.82621C26.2557 2.1193 26.6164 2.57773 26.8569 2.94598C26.6615 3.20901 26.5263 3.35932 26.3384 3.53968C26.1956 3.75763 26.1204 4.59933 25.662 5.23062C26.3384 4.93752 26.6014 4.52418 26.8419 4.11836C28.9763 5.72662 27.2402 9.83747 26.7517 10.7393C26.2858 10.4237 25.6845 10.2433 25.1359 10.1456L25.0758 9.96522L24.5723 8.34193H24.8052C25.0683 8.34193 25.1359 8.16156 25.0908 8.01877L26.5638 8.47721L27.2177 8.68012L26.8194 8.1315L26.1355 7.18458L26.8194 6.24517L27.2177 5.68905L26.5638 5.89196L25.2411 6.29778C25.151 5.99717 24.9029 5.85438 24.6324 5.81681L25.0758 4.31376L25.2637 3.66744L24.7226 4.06575L23.7756 4.74212L22.8287 4.05824L22.2876 3.65993L22.4755 4.30624L22.9189 5.80929C22.6559 5.84687 22.4003 5.98966 22.3102 6.29027L20.9875 5.88444L20.3411 5.68153L20.7394 6.23766L21.4233 7.17707L20.7394 8.12399L20.3411 8.6726L20.9875 8.46969L22.468 8.01126C22.4229 8.15405 22.4755 8.33441 22.7536 8.33441H22.9865L22.483 9.95771L22.4229 10.1381C21.8592 10.2358 21.243 10.4237 20.7695 10.7543C19.3341 7.96617 19.7324 5.14795 20.9424 4.21606C20.9198 4.80976 21.4384 5.61389 21.6789 5.77923C21.5286 5.17049 21.7991 4.08078 21.4835 3.81023C21.258 3.62235 20.9273 3.52465 20.5666 3.53968C20.8071 3.14138 21.1453 2.63034 21.7164 1.87881C22.5657 1.4805 22.8062 0.496007 23.0166 0C22.0922 0.338186 21.4233 0.811647 21.273 1.58572C20.9499 2.0216 20.5891 2.52513 20.1833 3.12635C20.2059 2.39737 19.8 2.14185 19.274 2.10427C17.7258 2.42743 17.8385 3.5472 16.5083 4.32127C17.4177 4.63691 18.8381 2.64537 19.3266 2.87083C19.4017 4.09581 19.1236 5.05777 19.1236 5.71911C18.8907 5.46359 18.7704 5.29074 18.575 5.25316C18.3871 5.2231 17.8686 5.26068 17.5078 5.65147C17.4101 6.26772 17.4327 7.4401 16.854 8.83042C17.7183 8.04132 18.1316 6.48566 18.2669 6.03475C18.4848 6.33536 18.7253 7.01173 18.7855 7.58289C18.8907 8.69515 19.5746 10.5514 20.1532 11.4457C19.9954 11.7539 19.9428 12.1071 20.0029 12.4903C19.552 12.8285 19.4994 13.2945 19.6572 13.6101C19.8226 13.9483 20.2735 14.1813 20.7921 13.9709L20.9574 13.9032C21.506 13.6778 22.5281 13.2494 23.7681 13.2494C25.0082 13.2494 26.0302 13.6778 26.5864 13.9032L26.7517 13.9709C27.2703 14.1813 27.7137 13.9483 27.8865 13.6101C28.0444 13.2945 27.9918 12.821 27.5408 12.4903C27.601 12.077 27.5333 11.7012 27.3454 11.3706L27.3605 11.3856C28.4201 9.87504 28.4953 6.98918 29.3671 6.17002C29.4422 7.18458 29.9758 8.01877 30.5094 8.1315C30.0885 7.43258 30.0885 6.04978 30.1186 5.4185Z" fill="black" fill-opacity="0.6"/>
<path d="M16.7263 28.9268L16.0724 28.9343C15.9747 30.0691 16.0198 31.0987 16.1776 32.0457C16.5835 31.3768 16.9893 30.7079 16.9668 30.242C16.9442 29.7535 16.8315 29.3176 16.7263 28.9268Z" fill="black" fill-opacity="0.6"/>
<path d="M19.0483 30.888C19.2737 31.5118 19.5518 32.5039 19.7772 33.1953C19.5818 33.2103 19.394 33.2179 19.2136 33.2479C19.1159 32.9999 18.7927 32.1807 18.4545 31.3841C18.1389 30.6475 18.8904 30.4521 19.0483 30.888ZM20.4161 30.2191C20.4687 29.8509 21.5058 29.7832 21.3104 30.5874C21.115 31.4066 20.867 32.3611 20.6791 33.1803H20.4161H20.153C19.9651 32.3611 19.7171 31.4066 19.5217 30.5874C19.3263 29.7832 20.3634 29.8584 20.4161 30.2191ZM22.3851 31.3916C22.0469 32.1882 21.7237 33.0074 21.626 33.2554C21.4532 33.2254 21.2578 33.2103 21.0699 33.2028C21.2954 32.5039 21.5659 31.5193 21.7989 30.8955C21.9492 30.4521 22.6932 30.6475 22.3851 31.3916ZM19.0483 33.7064C19.2737 33.6237 20.153 33.5861 20.4161 33.5861C20.6791 33.5861 21.5509 33.6312 21.7838 33.7064C21.8064 33.8266 21.8064 33.992 21.7914 34.1122C21.4532 34.2099 20.8595 34.2625 20.4161 34.2625C19.9726 34.2625 19.3789 34.2099 19.0407 34.1122C19.0257 33.992 19.0257 33.8266 19.0483 33.7064ZM21.5058 36.2842C21.2127 36.3519 20.7392 36.3819 20.4236 36.3819C20.1079 36.3819 19.6345 36.3519 19.3338 36.2842L19.4466 35.7957C19.2211 35.7731 18.9957 35.6905 18.8153 35.6228C18.9055 35.3072 19.0483 34.984 19.1685 34.5481C19.5743 34.6383 19.9651 34.6759 20.4161 34.6759C20.867 34.6759 21.2578 34.6383 21.6636 34.5481C21.7838 34.984 21.9266 35.3072 22.0243 35.6228C21.844 35.683 21.611 35.7731 21.3931 35.7957C21.3931 35.8032 21.5058 36.2842 21.5058 36.2842ZM17.0116 28.9189C17.1243 29.3098 17.222 29.7457 17.2446 30.2191C17.2671 30.7753 16.8538 31.4592 16.4179 32.1882L16.2676 32.4362C17.5226 38.6366 23.5199 40.7034 23.5199 40.7034V28.934C23.5199 28.934 19.0032 28.9189 17.0116 28.9189Z" fill="black" fill-opacity="0.6"/>
<path d="M30.096 30.0839L30.0734 29.7908H30.3665C30.7648 29.7908 30.9602 29.4075 31.0655 28.9642C29.5323 28.9491 24.0161 28.9717 24.0161 28.9717V34.6532C24.4745 34.315 24.9179 34.0294 25.4966 33.8491V32.6015H26.0678C26.0978 31.2262 26.4285 30.2342 27.0673 29.5804L27.2477 29.385L27.4356 29.5804C28.0744 30.2342 28.405 31.2262 28.4351 32.6015H29.0288V33.9317C29.6601 34.1948 30.0809 34.5931 30.4041 35.0139C30.9227 33.9543 31.3059 32.7293 31.4487 31.3089L31.3661 31.3164C30.7799 31.3239 30.1486 30.8956 30.096 30.0839Z" fill="black" fill-opacity="0.6"/>
<path d="M31.471 28.9714L31.3583 28.9639C31.223 29.6177 30.9224 30.0611 30.3813 30.0686C30.4264 30.715 30.9149 31.0457 31.3809 31.0457L31.4936 31.0306C31.5312 30.3768 31.5387 29.7004 31.471 28.9714Z" fill="black" fill-opacity="0.6"/>
<path d="M28.623 36.3293L28.1195 35.7581L27.2703 36.5172L27.6235 36.9155C27.6235 36.9155 27.9767 36.7502 28.2999 37.1109C28.0594 37.3213 27.646 37.6821 27.4055 37.885C27.0899 37.5168 27.3078 37.1936 27.3078 37.1936L26.9621 36.7953L25.9175 37.7272L25.5793 37.3364L26.6465 36.442L26.2632 35.9986L25.91 36.3068C25.6094 35.9535 25.3689 35.4876 25.5868 34.9013C26.1956 34.7661 26.6239 35.0667 26.9245 35.4124L26.5788 35.7205L26.9621 36.164L27.8339 35.435L27.3304 34.8638C27.7813 34.8112 28.1721 34.969 28.3976 35.2245C28.638 35.48 28.7433 35.8934 28.623 36.3293ZM27.2552 34.1348C25.5868 34.1348 24.9405 34.6007 24.0161 35.2997V40.7334C24.0161 40.7334 27.9842 39.3731 30.1411 35.5402C29.6526 34.7961 28.9236 34.1348 27.2552 34.1348Z" fill="black" fill-opacity="0.6"/>
<path d="M17.4403 24.3119C18.2745 23.8385 18.7028 23.4928 19.1462 22.7939C18.8231 22.6361 18.4323 22.343 18.1392 21.9372C19.7249 22.3806 20.5291 22.6136 22.4004 21.9522C22.0923 22.4332 21.6413 22.7188 21.2581 22.9668C21.6789 23.6656 22.0998 24.4622 22.2501 25.101C21.6939 25.0559 21.0551 25.1912 20.6042 25.6045C19.9053 25.6346 19.0185 25.86 18.53 24.2744C18.282 24.4021 18.0265 24.5749 18.0265 24.5749C18.312 25.612 18.8381 26.3184 20.236 26.1681C20.3111 26.4988 20.3712 26.6866 20.5441 26.9647C19.9729 27.2954 18.5375 28.1445 17.4403 27.1751C17.4403 27.1601 17.4403 24.3119 17.4403 24.3119ZM22.686 26.6491C22.5357 26.8595 21.6413 27.1375 21.4234 26.9948C21.0476 26.7693 20.8597 26.2733 20.9499 26.0629C21.0551 25.7924 22.0472 25.5143 22.3628 25.6195C22.6785 25.7247 22.8137 26.4687 22.686 26.6491ZM25.3614 25.4542V25.1611L24.6625 25.1536C24.8278 24.4171 26.2633 23.4778 26.9096 23.2598C26.872 22.4557 27.9317 22.1927 28.7809 22.1702C29.833 22.1401 30.081 23.2674 30.081 23.6206C30.081 24.0865 29.9608 25.116 29.3746 25.4317C28.5329 25.8826 27.8114 25.2438 27.8114 24.6651C27.8114 24.0339 28.2548 23.6581 29.0139 23.7408C29.7729 23.8235 29.7203 23.3951 29.1416 23.2523C28.8636 23.1847 27.6536 23.1246 27.2553 24.0188C27.0223 24.0264 26.7743 23.9362 26.6315 23.7934C26.4737 23.9963 26.2332 24.1316 25.895 24.2293C26.1881 24.8229 26.7818 24.7252 27.1501 24.4397L27.135 24.6952C27.135 26.1606 28.6982 26.5288 29.6602 25.9802C29.5024 26.4537 29.5775 27.0549 29.6376 27.4607H25.8574C25.9251 27.0549 26.4286 26.5965 26.8495 26.2959L26.5113 25.7623C26.0979 25.9427 25.7146 26.108 25.2712 26.2207C24.2116 26.4988 24.2717 25.7548 25.3614 25.4542ZM16.2979 26.0103C16.7188 26.356 16.8766 26.6115 16.7489 27.7763C16.7338 27.9191 16.809 28.1972 16.8916 28.4902H31.1407C31.1557 28.3324 31.1633 28.1821 31.1633 28.0544C31.1783 27.4156 31.058 26.9046 30.8551 26.6942C30.7875 26.6265 30.7123 26.589 30.5771 26.589H30.562L29.9909 26.6491L30.2915 26.1606C30.5921 25.6796 31.0129 25.4091 31.4639 25.3715V21.1406H16.1025V25.86L16.2604 25.9577L16.2979 26.0103Z" fill="black" fill-opacity="0.6"/>
<path d="M16.1025 26.2061V28.491H16.606C16.5158 28.1903 16.4482 27.9273 16.4707 27.7394C16.5984 26.5894 16.4256 26.4691 16.1025 26.2061Z" fill="black" fill-opacity="0.6"/>
<path d="M31.4712 28.4902V25.6572C31.1405 25.6873 30.7948 25.8977 30.5317 26.3185L30.6144 26.311C31.2457 26.311 31.4637 27.1752 31.4486 28.0544C31.4486 28.2047 31.4411 28.3475 31.4261 28.4902H31.4712Z" fill="black" fill-opacity="0.6"/>
<path d="M19.8375 24.605C20.1006 24.7327 20.4237 24.5825 20.7694 24.6275C20.7018 24.4773 20.6341 24.3721 20.6717 24.1618C20.7544 23.7487 20.4312 23.6436 20.2734 23.6586C19.8901 23.6811 19.6722 23.7637 19.2664 23.6586C19.5444 23.929 19.4693 24.4322 19.8375 24.605Z" fill="black" fill-opacity="0.6"/>
<path d="M16.4932 27.724C16.6284 26.5441 16.4406 26.4464 16.1024 26.1683C15.8093 25.9278 15.3208 25.8527 14.8323 25.5145C14.4866 25.274 14.3889 24.9283 13.9455 24.4623C14.0356 23.4628 14.7421 22.2528 15.2682 21.9748C15.3433 21.9372 15.3208 20.3966 15.3208 20.3966C15.3208 20.3966 15.6665 20.3815 15.6364 20.359C15.1705 20.0734 14.5993 20.2913 14.1935 20.7723C13.7952 21.088 12.8858 21.7042 12.262 21.9146C11.4128 21.2007 10.0901 20.5694 9.12062 19.5999C9.12062 19.5999 10.3982 19.5924 10.9919 19.3444C11.1498 19.2467 11.5556 18.5929 11.3903 17.9691C11.1873 17.9015 10.9018 17.7512 10.6237 17.5934C10.2705 17.3904 9.93228 17.18 9.77445 17.0598C9.21832 16.6389 8.99286 16.2707 8.0309 16.0302C8.09102 15.5868 8.18872 15.692 8.60958 15.4064C9.15068 15.0382 9.45129 14.6023 9.66172 14.1739C9.82706 13.8357 9.63918 13.1368 9.20329 14.0236C9.05298 14.3392 8.63212 14.7526 8.15866 14.8803C8.19623 14.6098 8.21127 14.452 8.21127 14.3017C9.61663 13.3097 9.48136 12.4304 9.36863 11.6112C9.3085 11.1377 8.83504 10.9348 8.85007 11.4308C8.8651 11.754 9.1582 12.6859 8.18872 13.2345C8.16617 12.8212 8.05344 12.6333 7.97078 12.4229C8.82752 11.2956 8.46679 10.2058 8.10605 9.70983C7.87308 9.39419 7.30943 9.28146 7.56495 9.78499C7.77538 10.1983 8.11357 11.3106 7.48228 11.769C7.26433 11.491 7.00881 11.3857 6.92614 11.0175C7.00881 9.77747 6.93366 9.02594 6.77584 8.59757C6.62553 8.19175 6.23473 7.93623 6.27231 8.53745C6.30237 9.22134 6.36249 10.0781 6.30237 10.1307C6.24225 10.1833 5.33289 9.34158 4.96464 9.08607C4.58888 8.83055 4.14547 8.92824 4.58136 9.43177C4.96464 9.87517 6.122 10.7319 5.9717 11.01C5.88151 11.1828 5.04731 10.4989 4.61894 10.3561C4.18305 10.2058 4.04777 10.4388 4.41602 10.7394C5.00973 11.2204 5.40053 11.5436 6.37001 11.8667C7.33949 12.1899 7.82798 13.5351 7.51986 15.459C7.50482 15.5492 7.33949 15.5342 7.24179 15.5041C7.1967 14.7751 7.06894 13.8958 6.89608 13.505C6.66311 12.994 6.21219 12.9865 6.37752 13.6779C6.5128 14.219 6.58795 14.8052 6.49025 15.5342C5.68611 15.3989 5.3855 15.181 5.04731 14.9856C5.00973 14.6098 5.20513 14.0011 5.23519 13.4524C5.26526 12.9113 4.94961 12.5732 4.76924 13.2495C4.59639 13.8958 4.48366 14.2115 4.37845 14.6774C4.14547 14.6023 3.90498 14.4971 3.79225 14.3693L3.73213 13.0466C3.67201 12.4454 3.44655 12.4679 3.27369 12.994C3.19102 13.2345 3.12339 13.5577 3.10084 13.9485C2.81526 13.7756 2.62737 13.4524 2.59731 13.1894C2.64241 12.5656 2.74762 11.9043 2.82277 11.491C2.87538 11.1903 2.67247 10.5891 2.43949 11.3181C2.27415 11.8442 2.22906 12.2801 2.12385 12.6483C1.92093 12.6333 1.65038 11.4459 1.51511 10.6868C1.45498 10.3411 1.16189 9.95032 1.10928 10.7169C1.04916 11.5661 1.22952 12.4229 1.43995 12.7986C1.02661 12.7535 0.635812 12.017 0.35023 11.5811C0.0947083 11.1979 -0.025537 11.5962 0.00452434 11.754C0.25253 13.2646 1.45498 13.7981 2.0036 13.9109C2.84532 15.1208 4.46111 15.6469 5.82891 16.2331C4.05529 16.2106 3.58934 16.9245 2.77768 16.4586C2.81526 17.1274 3.14593 17.4355 3.46909 17.5934C3.69455 17.6986 3.92001 17.7286 4.02523 17.7512C4.17553 18.5628 4.9421 18.5177 5.60345 18.5628C5.43811 20.1486 5.62599 22.2378 7.01633 23.801C6.97875 24.6051 6.91863 25.6573 6.93366 26.3562C5.79133 27.4158 4.77676 29.6328 4.37845 30.8578C4.07783 31.7747 3.62691 32.4886 2.92799 32.8268C3.49915 33.4281 4.34087 33.1274 4.82937 32.7968C4.85943 33.3379 4.98719 33.7136 5.06986 34.0368C4.7467 34.5178 4.52124 34.856 4.5513 35.4497C4.18305 35.5549 3.92753 35.7803 3.73213 36.0283C3.60437 36.1862 3.75467 36.9151 3.88995 37.2233C4.34087 38.2378 3.98765 40.5375 3.9125 41.2139C4.10789 41.2214 4.4536 41.2364 4.52875 40.9509C4.64148 41.0561 4.91955 41.259 5.04731 41.6949C5.01725 41.8828 4.91203 42.5892 5.27277 42.6794C5.56587 42.7545 6.84348 42.7094 7.01633 42.4915C6.88857 42.3412 6.66311 42.003 6.52783 41.6648C6.52783 41.3191 6.49777 40.8982 6.40007 40.7179C6.24976 40.4624 5.88151 39.8762 5.64854 39.6357C5.59593 39.2148 5.55835 37.3435 5.75375 36.6221C6.08443 36.3966 8.33151 34.7282 8.79746 33.1274C9.2108 33.2702 9.08304 34.3825 9.08304 35.8254C9.08304 36.2162 9.55651 36.4116 9.83458 36.4417C10.4433 36.5168 11.3076 37.0955 12.2771 38.5309C12.4649 38.328 12.7129 38.1401 12.7129 38.1401C12.8407 38.3055 12.9835 38.7188 13.0737 38.9894C13.1789 39.1848 13.9605 39.305 14.5617 39.1246C14.7571 39.057 14.8774 39.0194 15.0051 38.809C14.2461 37.4788 13.7876 36.5995 12.8106 35.863C12.3597 35.5248 11.751 35.352 11.2475 35.0288C11.5856 34.39 12.5175 31.414 11.9539 30.3242C11.766 29.9635 11.0596 29.6103 10.1953 29.7681C10.9168 28.9039 12.3748 27.1904 12.5702 26.6643C12.7355 26.8672 13.5998 26.7244 14.2461 26.9799C14.4791 27.0776 15.1404 27.9269 15.1705 28.22C15.2306 28.746 15.2531 29.3698 14.8924 30.8127C15.1479 30.7677 15.1103 30.7601 15.3659 30.6549C15.411 31.0382 15.2907 31.3388 14.9525 31.9175C15.0352 32.436 15.2682 33.2402 15.5162 33.383C15.8393 32.4135 17.0493 31.0382 17.0117 30.2265C16.9441 29.1218 16.433 28.1974 16.4932 27.724Z" fill="black" fill-opacity="0.6"/>
<path d="M62.983 21.4861C62.75 20.7571 61.9834 19.6524 60.4353 19.6524C59.4508 19.6524 58.6015 20.1559 58.1807 20.9225C57.6772 21.8619 57.4517 23.132 57.4517 24.8831C57.4517 27.3857 57.865 28.9564 58.7443 29.5802C59.2028 29.9109 59.789 30.0837 60.4804 30.0837C62.502 30.0837 63.3587 28.5356 63.3587 24.8455C63.3587 23.365 63.231 22.2978 62.983 21.4861ZM67.4696 34.5479C67.4696 34.5479 67.0488 34.7959 66.177 34.7959C65.0497 34.7959 64.0502 34.127 63.5091 33.7738C62.8176 33.3154 61.6903 32.669 60.5706 32.3158C58.3986 32.3158 56.9782 31.7146 55.8735 30.2716C54.7687 28.8512 54.2051 27.0175 54.2051 24.8906C54.2051 21.7642 55.3925 19.239 57.4818 18.1117C58.3385 17.6533 59.3982 17.4053 60.4879 17.4053C64.3508 17.4053 66.7256 20.2235 66.7256 24.7704C66.7256 27.9193 65.5983 30.2791 63.8698 31.429C64.2681 31.5718 64.8317 31.9476 65.1624 32.158C65.681 32.4661 66.3123 32.7592 66.9586 32.7592C67.5824 32.7592 68.2512 32.654 68.2512 32.654L67.4696 34.5479Z" fill="black" fill-opacity="0.6"/>
<path d="M76.1874 32.3762C75.8341 32.1282 75.541 31.775 75.3532 31.3316C74.6618 32.0005 73.6622 32.3537 72.5349 32.3537C71.0319 32.3537 69.7393 31.6472 69.386 30.6176C69.2207 30.1367 69.1531 29.573 69.1531 28.4908V21.6519L71.9112 21.1333V27.9948C71.9112 28.9568 71.9938 29.4528 72.1441 29.7459C72.2869 30.039 72.7078 30.2494 73.1286 30.2494C73.8201 30.2494 74.6542 29.7459 74.8572 29.2273V21.7195L77.5251 21.1558V29.31C77.5251 30.0164 77.758 30.7529 78.1714 31.2489L76.1874 32.3762Z" fill="black" fill-opacity="0.6"/>
<path d="M86.363 25.4468C86.363 24.6577 86.2803 24.2368 86.0323 23.8385C85.7618 23.4177 85.3635 23.2148 84.7998 23.2148C83.7326 23.2148 83.1314 24.049 83.1314 25.5295V25.5746H86.363V25.4468ZM83.0863 27.6187V27.7014C83.0863 29.3473 83.898 30.2867 85.3409 30.2867C86.3029 30.2867 87.1972 29.9334 88.054 29.2195L89.1362 30.8879C87.9036 31.8874 86.611 32.3684 85.1079 32.3684C82.0417 32.3684 80.0576 30.1965 80.0576 26.8447C80.0576 24.9207 80.4559 23.6507 81.3954 22.606C82.2746 21.6215 83.3343 21.1631 84.7547 21.1631C85.9872 21.1631 87.1521 21.5839 87.8435 22.2904C88.828 23.2899 89.2639 24.7329 89.2639 26.9649V27.6112L83.0863 27.6187Z" fill="black" fill-opacity="0.6"/>
<path d="M97.1702 25.4468C97.1702 24.6577 97.0875 24.2368 96.832 23.8385C96.5614 23.4177 96.1631 23.2148 95.5995 23.2148C94.5323 23.2148 93.9311 24.049 93.9311 25.5295V25.5746H97.1627L97.1702 25.4468ZM93.8935 27.6187V27.7014C93.8935 29.3473 94.7051 30.2867 96.1481 30.2867C97.11 30.2867 98.0044 29.9334 98.8611 29.2195L99.9509 30.8879C98.7183 31.8874 97.4257 32.3684 95.9226 32.3684C92.8564 32.3684 90.8723 30.1965 90.8723 26.8447C90.8723 24.9207 91.2706 23.6507 92.21 22.606C93.0893 21.6215 94.149 21.1631 95.5694 21.1631C96.8019 21.1631 97.9668 21.5839 98.6582 22.2904C99.6352 23.2899 100.079 24.7329 100.079 26.9649V27.6112L93.8935 27.6187Z" fill="black" fill-opacity="0.6"/>
<path d="M107.977 32.0828V25.1387C107.977 23.9288 107.767 23.5756 107.038 23.5756C106.474 23.5756 105.745 23.9513 105.099 24.5375V32.0903H102.303V24.3496C102.303 23.4328 102.175 22.5535 101.927 21.8471L104.407 21.1406C104.655 21.5765 104.806 22.0349 104.806 22.4783C105.219 22.1852 105.58 21.9372 106.038 21.6817C106.602 21.3886 107.331 21.2233 107.955 21.2233C109.142 21.2233 110.187 21.8471 110.517 22.7639C110.66 23.1622 110.728 23.6207 110.728 24.2895V32.0903L107.977 32.0828Z" fill="black" fill-opacity="0.6"/>
<path d="M117.063 32.4136C115.748 32.4136 114.313 31.9927 112.75 31.1811L113.749 29.1369C114.606 29.6555 116.086 30.3469 117.296 30.3469C118.085 30.3469 118.717 29.8283 118.717 29.1369C118.717 28.4079 118.198 28.0321 117.071 27.8217L115.823 27.5887C115.117 27.461 114.238 26.965 113.862 26.5065C113.486 26.0481 113.261 25.274 113.261 24.5901C113.261 22.5009 114.906 21.103 117.386 21.103C119.1 21.103 120.227 21.6216 121.204 22.1026L120.287 23.9814C119.228 23.4403 118.454 23.2073 117.657 23.2073C116.845 23.2073 116.304 23.6282 116.304 24.2519C116.304 24.793 116.657 25.0861 117.642 25.3341L118.935 25.6648C120.25 25.9955 120.686 26.3938 121.061 26.8748C121.46 27.3783 121.648 27.9795 121.648 28.6935C121.64 30.9105 119.799 32.4136 117.063 32.4136Z" fill="black" fill-opacity="0.6"/>
<path d="M126.6 32.3306C125.413 32.3306 124.451 31.7669 124.12 30.8726C123.91 30.3315 123.872 29.9933 123.872 28.4753V20.5091C123.872 19.1113 123.834 18.2546 123.722 17.3001L126.578 16.6538C126.683 17.24 126.728 17.9239 126.728 19.4269V27.7538C126.728 29.5875 126.75 29.843 126.916 30.1286C127.021 30.3165 127.246 30.4217 127.479 30.4217C127.585 30.4217 127.645 30.4217 127.788 30.3766L128.269 32.045C127.788 32.2329 127.201 32.3306 126.6 32.3306Z" fill="black" fill-opacity="0.6"/>
<path d="M134.732 27.4086C132.793 27.4086 132.124 27.7618 132.124 29.0394C132.124 29.8735 132.642 30.4372 133.356 30.4372C133.882 30.4372 134.401 30.1666 134.822 29.7082L134.859 27.4161H134.732V27.4086ZM137.106 32.624C136.46 32.3535 135.874 31.8725 135.603 31.3314C135.393 31.5419 135.168 31.7523 134.957 31.8951C134.439 32.2708 133.687 32.4812 132.808 32.4812C130.433 32.4812 129.133 31.2713 129.133 29.1446C129.133 26.6421 130.861 25.4773 134.266 25.4773C134.476 25.4773 134.664 25.4773 134.889 25.4998V25.064C134.889 23.8766 134.664 23.4783 133.642 23.4783C132.748 23.4783 131.703 23.9142 130.553 24.6882L129.366 22.6817C129.929 22.3285 130.343 22.1181 131.094 21.8025C132.139 21.3666 133.033 21.1787 134.01 21.1787C135.806 21.1787 137.039 21.8475 137.452 23.0349C137.602 23.4708 137.663 23.809 137.64 24.9512L137.58 28.5434C137.557 29.7082 137.64 30.2117 138.579 30.9256L137.106 32.624Z" fill="black" fill-opacity="0.6"/>
<path d="M146.478 32.0828V25.1387C146.478 23.9288 146.268 23.5756 145.539 23.5756C144.975 23.5756 144.246 23.9513 143.6 24.5375V32.0903H140.804V24.3496C140.804 23.4328 140.676 22.5535 140.428 21.8471L142.909 21.1406C143.157 21.5765 143.307 22.0349 143.307 22.4783C143.72 22.1852 144.081 21.9372 144.539 21.6817C145.103 21.3886 145.832 21.2233 146.456 21.2233C147.643 21.2233 148.688 21.8471 149.018 22.7639C149.169 23.1622 149.229 23.6207 149.229 24.2895V32.0903L146.478 32.0828Z" fill="black" fill-opacity="0.6"/>
<path d="M158.195 24.214C157.676 23.7556 157.173 23.5226 156.669 23.5226C155.414 23.5226 154.873 24.5672 154.873 26.9421C154.873 29.2342 155.354 29.9857 156.812 29.9857C157.338 29.9857 157.917 29.6325 158.187 29.2943L158.195 24.214ZM158.826 32.0825C158.743 31.9171 158.706 31.7518 158.661 31.4587C157.969 32.0674 157.158 32.353 156.196 32.353C153.483 32.353 151.777 30.2488 151.777 26.927C151.777 23.5903 153.633 21.2906 156.346 21.2906C157.12 21.2906 157.721 21.4785 158.247 21.8993C158.202 21.6664 158.165 20.9374 158.165 20.3136V16.6387L160.938 17.0746V28.1746C160.938 30.8049 161.141 31.6541 161.336 32.075H158.826" fill="black" fill-opacity="0.6"/>
<path d="M174.075 32.3157C172.278 32.3157 170.76 31.6919 169.671 30.5195C168.461 29.2043 167.897 27.4307 167.897 24.9656C167.897 22.2301 168.626 20.2911 170.106 18.9534C171.129 18.0365 172.361 17.6006 173.842 17.6006C175.367 17.6006 176.682 18.0816 177.764 19.021L176.99 20.0882C175.826 19.2915 174.991 18.9834 173.887 18.9834C172.218 18.9834 170.903 19.7575 170.317 21.4034C169.941 22.4705 169.753 23.6805 169.753 25.0333C169.753 26.9121 170.106 28.4302 170.753 29.3696C171.399 30.3091 172.857 30.8953 174.217 30.8953C175.112 30.8953 175.886 30.7074 176.494 30.3316V25.9727H173.609L173.27 24.5523H178.088V31.2259C177.073 31.8948 175.532 32.3157 174.075 32.3157Z" fill="black" fill-opacity="0.6"/>
<path d="M187.001 24.049C186.565 23.1321 185.648 22.7112 184.791 22.7112C183.875 22.7112 183.018 23.1471 182.665 23.8385C182.334 24.4848 182.161 25.319 182.161 26.5515C182.161 28.0095 182.417 29.3021 182.807 29.9559C183.183 30.5797 184.017 31.0005 184.912 31.0005C185.994 31.0005 186.813 30.4369 187.166 29.4374C187.399 28.7911 187.482 28.2049 187.482 27.1828C187.482 25.7173 187.339 24.7404 187.001 24.049ZM184.874 32.3533C182.018 32.3533 180.387 30.249 180.387 26.8221C180.387 23.4402 182.078 21.3735 184.814 21.3735C186.542 21.3735 187.67 22.1701 188.384 23.1847C189.03 24.1241 189.346 25.3566 189.346 27.0475C189.338 30.5196 187.482 32.3533 184.874 32.3533Z" fill="black" fill-opacity="0.6"/>
<path d="M195.305 32.1887H193.697L189.962 21.7795L191.63 21.4263L194.05 28.5812C194.343 29.438 194.554 30.3549 194.554 30.3549H194.599C194.599 30.3549 194.764 29.5432 195.102 28.6037L197.485 21.6968H199.213L195.305 32.1887Z" fill="black" fill-opacity="0.6"/>
<path d="M206.187 23.6132C205.834 23.0496 205.098 22.6964 204.309 22.6964C202.828 22.6964 201.994 23.7786 201.911 25.9279H206.668C206.646 24.8006 206.503 24.1167 206.187 23.6132ZM201.911 27.1604V27.4084C201.911 28.3854 202.039 29.1445 202.392 29.6856C202.978 30.5799 203.933 30.9557 204.978 30.9557C205.977 30.9557 206.796 30.64 207.525 29.9787L208.149 31.0233C207.232 31.8575 205.977 32.3159 204.647 32.3159C201.769 32.3159 200.04 30.2267 200.04 26.7847C200.04 25.0336 200.416 23.9063 201.295 22.8617C202.129 21.8772 203.151 21.4263 204.406 21.4263C205.534 21.4263 206.511 21.8246 207.225 22.5536C208.119 23.4704 208.412 24.4549 208.412 26.935V27.1679L201.911 27.1604Z" fill="black" fill-opacity="0.6"/>
<path d="M215.221 23.26C215.116 23.2149 214.928 23.1774 214.763 23.1774C214.139 23.1774 213.507 23.4479 213.034 23.9289C212.553 24.4099 212.425 24.7256 212.425 25.5748V32.0833H210.802V24.0717C210.802 22.5461 210.449 21.8621 210.449 21.8621L212.072 21.4262C212.072 21.4262 212.47 22.2379 212.41 23.1172C213.162 22.0576 214.267 21.3887 215.334 21.3887C215.604 21.3887 215.897 21.4939 215.897 21.4939L215.221 23.26Z" fill="black" fill-opacity="0.6"/>
<path d="M222.819 32.0833V25.0563C222.819 23.9516 222.736 23.681 222.443 23.3203C222.218 23.0497 221.774 22.8844 221.293 22.8844C220.459 22.8844 219.166 23.5532 218.415 24.3424V32.0833H216.829V24.0718C216.829 22.5913 216.431 21.8773 216.431 21.8773L218.017 21.4414C218.017 21.4414 218.392 22.2155 218.392 23.0723C219.475 21.99 220.564 21.464 221.669 21.464C222.796 21.464 223.796 22.0727 224.217 22.9896C224.382 23.3654 224.465 23.7862 224.465 24.1996V32.0833H222.819Z" fill="black" fill-opacity="0.6"/>
<path d="M238.999 32.083V24.4096C238.999 23.4101 238.541 22.884 237.662 22.884C236.722 22.884 235.993 23.4927 234.911 24.4923V32.083H233.265V24.6952C233.265 24.0714 233.198 23.6506 232.972 23.3575C232.724 23.0644 232.386 22.9366 231.912 22.9366C231.123 22.9366 230.349 23.3349 229.26 24.3119V32.0755H227.696V24.0263C227.696 22.5232 227.321 21.8168 227.321 21.8168L228.906 21.441C228.906 21.441 229.282 22.2527 229.282 22.9817C229.966 22.2076 231.244 21.4185 232.303 21.4185C233.325 21.4185 234.347 22.0422 234.723 23.1545C235.723 22.0873 236.993 21.4185 238.06 21.4185C239.601 21.4185 240.668 22.5909 240.668 24.2368V32.083H238.999Z" fill="black" fill-opacity="0.6"/>
<path d="M249.431 23.6132C249.077 23.0496 248.348 22.6964 247.552 22.6964C246.071 22.6964 245.237 23.7786 245.147 25.9279H249.904C249.889 24.8006 249.746 24.1167 249.431 23.6132ZM245.154 27.1604V27.4084C245.154 28.3854 245.282 29.1445 245.635 29.6856C246.222 30.5799 247.176 30.9557 248.221 30.9557C249.22 30.9557 250.039 30.64 250.768 29.9787L251.392 31.0233C250.475 31.8575 249.22 32.3159 247.89 32.3159C245.012 32.3159 243.276 30.2267 243.276 26.7847C243.276 25.0336 243.651 23.9063 244.531 22.8617C245.365 21.8772 246.387 21.4263 247.642 21.4263C248.769 21.4263 249.746 21.8246 250.46 22.5536C251.355 23.4704 251.648 24.4549 251.648 26.935V27.1679L245.154 27.1604Z" fill="black" fill-opacity="0.6"/>
<path d="M260.027 32.0833V25.0563C260.027 23.9516 259.945 23.681 259.652 23.3203C259.426 23.0497 258.983 22.8844 258.509 22.8844C257.675 22.8844 256.383 23.5532 255.631 24.3424V32.0833H254.045V24.0718C254.045 22.5913 253.647 21.8773 253.647 21.8773L255.233 21.4414C255.233 21.4414 255.608 22.2155 255.608 23.0723C256.698 21.99 257.78 21.464 258.885 21.464C260.012 21.464 261.012 22.0727 261.433 22.9896C261.606 23.3654 261.681 23.7862 261.681 24.1996V32.0833H260.027Z" fill="black" fill-opacity="0.6"/>
<path d="M268.685 22.9215H266.513V29.6177C266.513 30.7675 266.829 31.1658 267.851 31.1658C268.309 31.1658 268.58 31.1057 268.873 30.9554L269.106 32C268.58 32.2706 268.001 32.4209 267.272 32.4209C266.731 32.4209 266.31 32.3157 265.919 32.1278C265.19 31.7746 264.92 31.1057 264.92 30.0611V22.9291H263.567V21.6966H264.92C264.92 20.697 265.085 19.0662 265.085 19.0662L266.799 18.6904C266.799 18.6904 266.588 20.3137 266.588 21.6966H269.196L268.685 22.9215Z" fill="black" fill-opacity="0.6"/>
</svg>
