<svg width="333" height="25" viewBox="0 0 333 25" fill="none" xmlns="http://www.w3.org/2000/svg">
<path d="M332.65 18.6723L332.204 16.6294C331.809 16.7614 331.398 16.8404 330.983 16.8642C329.809 16.8642 329.503 16.4415 329.503 14.7743V8.19954H331.687L332.556 5.85138H329.503C329.503 4.51294 329.503 3.08056 329.691 1.883L326.216 2.75181C326.113 3.78156 326.074 4.81676 326.099 5.85138H324.807V8.19954H326.099V15.244C326.029 15.9262 326.109 16.6154 326.333 17.2634C326.655 17.9048 327.164 18.4329 327.793 18.777C328.423 19.1211 329.142 19.2648 329.856 19.1889C330.816 19.1747 331.765 18.9754 332.65 18.6018V18.6723ZM324.056 5.75744C323.656 5.55509 323.212 5.45811 322.764 5.47567C322.144 5.52735 321.544 5.72433 321.014 6.05067C320.484 6.37701 320.037 6.82351 319.712 7.35416C319.682 6.69425 319.497 6.05071 319.172 5.47567L316.096 6.29754C316.47 7.53744 316.637 8.83074 316.589 10.125V18.8836H320.017V9.60844C320.262 9.28366 320.578 9.018 320.939 8.83107C321.301 8.64415 321.7 8.54066 322.107 8.52824C322.457 8.52525 322.803 8.60575 323.117 8.76307L324.056 5.75744ZM309.967 12.2619C309.967 15.3379 309.309 16.6763 307.83 16.6763C307.467 16.6835 307.11 16.5853 306.801 16.3936C306.493 16.2019 306.247 15.9249 306.092 15.5962C305.754 14.5349 305.611 13.4211 305.67 12.3088C305.629 11.3256 305.748 10.3423 306.022 9.39712C306.12 9.07278 306.305 8.78112 306.555 8.55303C306.806 8.32495 307.114 8.1689 307.446 8.10151C307.778 8.03411 308.122 8.05782 308.442 8.17016C308.762 8.28249 309.045 8.47931 309.262 8.73964C309.851 9.81448 310.097 11.0434 309.967 12.2619ZM313.7 12.2619C313.802 10.56 313.257 8.88264 312.174 7.56556C311.639 6.91452 310.959 6.39729 310.188 6.0549C309.418 5.71251 308.578 5.55434 307.736 5.59305C304.214 5.59305 301.866 8.34042 301.866 12.4497C301.866 16.5589 304.214 19.2359 307.736 19.2359C308.548 19.2805 309.36 19.1386 310.109 18.8211C310.858 18.5036 311.524 18.019 312.057 17.4043C313.242 16.0003 313.832 14.1885 313.7 12.3557V12.2619ZM295.948 12.3557C295.948 15.3379 295.291 16.4885 293.6 16.4885C292.902 16.4466 292.236 16.1834 291.698 15.7371V9.35011C292 9.03229 292.365 8.78054 292.769 8.61079C293.173 8.44104 293.608 8.35702 294.046 8.36392C294.405 8.3318 294.764 8.42388 295.064 8.62477C295.363 8.82565 295.584 9.12317 295.69 9.46756C295.954 10.4063 296.065 11.3816 296.019 12.3557H295.948ZM299.752 12.027C299.882 10.9613 299.735 9.8801 299.323 8.88847C298.912 7.89685 298.251 7.02855 297.404 6.36798C296.64 5.85443 295.742 5.57681 294.821 5.56962C294.231 5.54875 293.642 5.64601 293.09 5.85568C292.537 6.06536 292.032 6.3832 291.604 6.79063C291.577 6.3755 291.498 5.9654 291.37 5.56962L288.34 6.10965C288.525 7.19512 288.596 8.29694 288.552 9.39712V24.5426L291.839 23.6738V19.5881C291.864 19.2285 291.864 18.8675 291.839 18.5079C292.668 18.9824 293.608 19.2257 294.563 19.2124C295.223 19.2234 295.877 19.0952 296.484 18.8363C297.091 18.5774 297.637 18.1934 298.085 17.7095C298.771 16.9437 299.286 16.0413 299.598 15.0619C299.91 14.0825 300.01 13.0482 299.893 12.027H299.752ZM285.804 13.3185C285.808 12.0444 285.356 10.8109 284.529 9.84169C283.702 8.87247 282.555 8.2316 281.296 8.03515L279.159 7.44811C277.656 7.02544 277.187 6.57932 277.187 5.64006C277.204 5.35095 277.28 5.0683 277.408 4.80852C277.536 4.54874 277.714 4.31701 277.933 4.12689C278.151 3.93677 278.406 3.79203 278.681 3.70109C278.956 3.61014 279.246 3.57483 279.535 3.59718C281.022 3.64527 282.464 4.11781 283.691 4.95908L285.382 2.3996C283.628 1.21712 281.556 0.594802 279.441 0.614982C278.656 0.523538 277.86 0.596254 277.105 0.828457C276.349 1.06066 275.65 1.44731 275.052 1.96391C274.453 2.48051 273.969 3.11577 273.629 3.82943C273.289 4.54309 273.101 5.31956 273.077 6.10965C273.067 7.06282 273.327 7.99944 273.829 8.81008C274.218 9.42246 274.729 9.94734 275.332 10.3516C275.934 10.7558 276.614 11.0305 277.328 11.1582L279.3 11.6983C280.873 12.1444 281.648 12.8489 281.648 14.0464C281.648 15.6432 280.568 16.3946 278.525 16.3946C276.801 16.3441 275.119 15.8509 273.641 14.9622L272.303 17.733C274.153 18.7756 276.237 19.333 278.361 19.3533C282.799 19.3533 285.71 17.0051 285.71 13.3655L285.804 13.3185ZM267.583 0.849812C266.644 0.298047 265.572 0.0138085 264.483 0.0279446C263.926 -0.0401882 263.361 0.016649 262.828 0.194267C262.296 0.371885 261.809 0.665847 261.405 1.05483C261 1.44381 260.687 1.91805 260.488 2.4431C260.29 2.96814 260.211 3.53081 260.257 4.09027C260.255 4.68798 260.302 5.28485 260.397 5.87489H259.129V8.22304H260.303V18.9775H263.661V8.22304H266.009L266.878 5.87489H263.45V4.01983C263.429 3.82342 263.451 3.62485 263.515 3.43788C263.579 3.25091 263.682 3.08001 263.819 2.93705C263.955 2.79408 264.121 2.68245 264.304 2.60992C264.488 2.53739 264.685 2.50567 264.882 2.51698C265.381 2.54805 265.865 2.70127 266.291 2.96313L267.583 0.849812ZM253.635 12.3557C253.635 15.4318 253.001 16.7703 251.521 16.7703C251.158 16.7804 250.799 16.6835 250.49 16.4914C250.181 16.2994 249.936 16.0207 249.784 15.6901C249.36 14.6371 249.137 13.5142 249.126 12.3792C249.098 11.3965 249.216 10.4151 249.478 9.46756C249.594 9.08305 249.829 8.74561 250.151 8.50473C250.472 8.26386 250.862 8.13222 251.263 8.12909C251.545 8.1226 251.825 8.18056 252.081 8.29857C252.338 8.41657 252.564 8.59152 252.742 8.81008C253.309 9.89231 253.546 11.1169 253.423 12.3323L253.635 12.3557ZM257.157 12.3323C257.256 10.6347 256.72 8.96092 255.654 7.636C255.114 6.98452 254.43 6.46724 253.655 6.12498C252.881 5.78272 252.038 5.62482 251.193 5.66356C247.67 5.66356 245.322 8.41086 245.322 12.5201C245.322 16.6294 247.67 19.3063 251.193 19.3063C252.005 19.3509 252.816 19.209 253.565 18.8915C254.314 18.5741 254.981 18.0895 255.513 17.4748C256.699 16.0707 257.288 14.259 257.157 12.4262V12.3323ZM238.794 5.92183H235.202L233.229 12.1679C233.018 12.7784 232.807 13.5533 232.713 13.976C232.619 14.3986 232.314 15.9954 232.314 16.0659L231.609 13.3655L229.261 5.7105L225.762 6.13315L230.083 19.0245H230.952C230.761 19.5563 230.517 20.0677 230.224 20.5508C229.965 20.9689 229.63 21.3351 229.237 21.631C228.576 22.0167 227.865 22.3091 227.124 22.4998L228.298 24.8479C229.441 24.7326 230.534 24.3196 231.468 23.6503C232.73 22.503 233.608 20.9942 233.981 19.3297L238.794 5.92183ZM224.048 19.0245V9.63187C224.048 7.84728 223.813 7.07242 223.062 6.43842C222.33 5.87505 221.425 5.5844 220.502 5.61656C219.796 5.6142 219.098 5.76644 218.457 6.06257C217.816 6.3587 217.248 6.79156 216.792 7.33073C216.632 7.11018 216.459 6.89848 216.276 6.69668C215.929 6.34651 215.516 6.07023 215.06 5.88456C214.604 5.6989 214.115 5.60774 213.622 5.61656C212.418 5.63369 211.266 6.11287 210.405 6.95502C210.355 6.48184 210.203 6.02516 209.959 5.61656L206.86 6.46193C207.305 7.52166 207.474 8.6768 207.353 9.81977V18.954H210.687V9.39712C211.328 8.79986 212.16 8.45021 213.035 8.41086C213.998 8.41086 214.209 8.7866 214.209 10.4303V18.954H217.473V9.56143C218.099 8.92467 218.932 8.53313 219.821 8.4578C220.714 8.4578 220.878 8.76308 220.878 10.3129V18.9775L224.048 19.0245ZM201.107 11.0408H197.138C197.138 9.20922 197.89 8.19954 199.181 8.19954C199.479 8.18111 199.776 8.24074 200.044 8.37252C200.312 8.50431 200.54 8.70371 200.707 8.95096C201.033 9.5542 201.172 10.2409 201.107 10.9234V11.0408ZM204.652 13.5298V12.755C204.767 11.732 204.671 10.6965 204.373 9.71149C204.074 8.72648 203.578 7.81259 202.915 7.02546C201.883 6.08933 200.527 5.59235 199.134 5.64006C198.361 5.60539 197.59 5.74573 196.878 6.05067C196.167 6.35561 195.533 6.81726 195.025 7.40117C193.818 8.84846 193.227 10.7121 193.381 12.5906C193.284 13.4556 193.373 14.3314 193.642 15.1593C193.911 15.9872 194.353 16.748 194.941 17.3906C195.528 18.0333 196.245 18.543 197.046 18.8855C197.846 19.2281 198.71 19.3956 199.58 19.3768C201.388 19.3847 203.138 18.743 204.511 17.5686L203.173 15.5023C202.265 16.3265 201.088 16.7937 199.862 16.8173C198.101 16.8173 197.091 15.6667 197.091 13.6473V13.5298H204.652ZM186.971 15.6197C186.539 16.1108 185.932 16.414 185.28 16.465C183.495 16.465 182.932 15.5492 182.932 12.7315C182.932 9.91367 183.589 8.52824 185.116 8.52824C185.826 8.56511 186.496 8.86677 186.994 9.37361L186.971 15.6197ZM190.798 19.0245C190.341 17.5037 190.174 15.9107 190.305 14.3282V0.638487L186.924 0.0983862V4.58336C186.887 5.2325 186.887 5.88323 186.924 6.53237C186.255 6.01367 185.421 5.75506 184.576 5.80445C181.241 5.80445 178.987 8.59875 178.987 12.708C178.987 16.8173 181.077 19.3533 184.388 19.3533C185.499 19.3713 186.578 18.9783 187.417 18.2496C187.435 18.5194 187.507 18.7827 187.628 19.0245H190.798ZM172.624 13.2951V16.0893C172.405 16.3563 172.134 16.5755 171.827 16.733C171.52 16.8906 171.183 16.9832 170.839 17.0051C170.623 17.003 170.409 16.9558 170.213 16.8664C170.016 16.777 169.84 16.6474 169.696 16.486C169.552 16.3246 169.444 16.1349 169.378 15.9291C169.312 15.7232 169.29 15.5059 169.313 15.2909C169.313 13.7177 170.134 13.2951 172.506 13.2951H172.624ZM177.202 17.5921C176.722 17.2873 176.348 16.8422 176.129 16.3171C175.911 15.792 175.859 15.2124 175.981 14.657V10.2659C176.063 9.47538 175.983 8.67652 175.747 7.91777C175.39 7.12277 174.785 6.46449 174.023 6.04128C173.262 5.61808 172.383 5.45265 171.52 5.56962C170.289 5.57423 169.073 5.83823 167.951 6.34448C167.215 6.6299 166.507 6.9837 165.837 7.40117L167.293 9.8667C168.385 9.02045 169.698 8.50682 171.074 8.38736C172.318 8.38736 172.6 8.88051 172.6 10.3364V10.8764C172.35 10.8545 172.099 10.8545 171.849 10.8764C167.669 10.8764 165.556 12.3088 165.556 15.3849C165.556 17.9913 167.129 19.4706 170.041 19.4706C170.968 19.5007 171.883 19.2556 172.67 18.7662C172.954 18.5519 173.221 18.3164 173.469 18.0618C173.881 18.7948 174.538 19.3598 175.324 19.6585L177.202 17.5921ZM164.335 17.5921L162.785 15.5258L162.573 15.7136C161.957 16.3602 161.117 16.7466 160.225 16.7938C159.928 16.7905 159.634 16.7215 159.366 16.5916C159.098 16.4616 158.862 16.2741 158.675 16.0424C158.129 15.0381 157.9 13.892 158.018 12.755C158.018 9.67888 158.699 8.34042 160.249 8.34042C161.039 8.42757 161.771 8.79398 162.315 9.37361L163.982 7.02546C163.598 6.65971 163.163 6.35124 162.691 6.10965C161.915 5.70933 161.051 5.50763 160.178 5.52261C159.022 5.53525 157.892 5.86855 156.914 6.48536C156.006 7.19834 155.286 8.12383 154.82 9.18027C154.353 10.2367 154.153 11.3918 154.237 12.5436C154.237 16.7938 156.327 19.3063 159.944 19.3063C161.063 19.3305 162.168 19.0461 163.137 18.4844C163.578 18.2104 163.981 17.8787 164.335 17.4982V17.5921ZM147.193 11.8157H143.718C144.117 10.6416 144.352 9.79629 144.681 8.50481C145.009 7.21332 145.408 5.49919 145.526 5.07653L146.23 8.22304C146.512 9.44408 147.076 11.4165 147.193 11.8157ZM153.157 19.001L147.569 1.17859H143.694L137.871 19.001H141.604L142.849 14.7743H148.156L149.4 19.001H153.157ZM127.187 15.5962C126.755 16.0873 126.148 16.3906 125.496 16.4416C123.712 16.4416 123.148 15.5258 123.148 12.708C123.148 9.89024 123.805 8.50481 125.332 8.50481C126.041 8.54611 126.709 8.84701 127.21 9.35011L127.187 15.5962ZM131.014 19.001C130.557 17.4803 130.39 15.8872 130.521 14.3047V0.638487L127.14 0.0983862V4.58336C127.103 5.2325 127.103 5.88323 127.14 6.53237C126.471 6.01367 125.637 5.75506 124.792 5.80445C121.457 5.80445 119.18 8.59875 119.18 12.708C119.18 16.8173 121.293 19.3533 124.604 19.3533C125.715 19.3713 126.794 18.9783 127.633 18.2496C127.651 18.5194 127.723 18.7827 127.844 19.0245L131.014 19.001ZM116.244 19.001V9.42055C116.266 8.79195 116.178 8.16446 115.986 7.56556C115.711 6.9711 115.264 6.4724 114.704 6.13351C114.143 5.79462 113.494 5.631 112.84 5.66356C112.024 5.67178 111.222 5.86442 110.491 6.2271C109.96 6.51986 109.45 6.84936 108.965 7.21328C108.953 6.63404 108.791 6.06783 108.496 5.56962L105.443 6.43842C105.767 7.43104 105.926 8.47031 105.913 9.51449V18.9071H109.341V9.63187C109.97 8.98846 110.797 8.575 111.689 8.4578C112.581 8.4578 112.84 8.90396 112.84 10.3833V18.9071L116.244 19.001ZM98.6802 13.2716V16.0659C98.4571 16.3336 98.1816 16.5528 97.8707 16.7103C97.5598 16.8678 97.22 16.9601 96.8722 16.9816C96.658 16.9763 96.4473 16.9267 96.2533 16.8359C96.0593 16.7451 95.8862 16.615 95.745 16.454C95.6038 16.2929 95.4975 16.1043 95.4328 15.9001C95.3682 15.6959 95.3466 15.4805 95.3694 15.2675C95.3694 13.6942 96.1912 13.2716 98.5628 13.2716H98.6802ZM103.236 17.5686C102.085 16.6998 101.991 16.0893 102.015 14.6334V10.2424C102.1 9.45342 102.028 8.65536 101.803 7.89426C101.446 7.09927 100.842 6.44106 100.08 6.01785C99.3184 5.59464 98.4402 5.42914 97.5766 5.54611C96.3457 5.55073 95.1295 5.8148 94.0074 6.32104C93.2642 6.60676 92.5488 6.96044 91.8706 7.37767L93.3264 9.84327C94.4221 9.00389 95.7326 8.49107 97.107 8.36392C98.375 8.36392 98.6568 8.857 98.6568 10.3129V10.853C98.399 10.8302 98.1397 10.8302 97.8819 10.853C93.7256 10.853 91.5888 12.2853 91.5888 15.3614C91.5888 17.9678 93.1856 19.4472 96.0973 19.4472C97.0242 19.4772 97.9393 19.2321 98.7272 18.7427C99.0107 18.5284 99.2776 18.2929 99.5256 18.0383C99.9274 18.7709 100.577 19.3369 101.357 19.635L103.236 17.5686ZM90.5556 18.9306L89.9686 16.8877C89.8442 16.9079 89.7173 16.9079 89.5929 16.8877C89.4582 16.8955 89.3239 16.8669 89.2041 16.805C89.0843 16.743 88.9834 16.6499 88.9119 16.5354C88.7006 16.1832 88.6771 15.878 88.6771 13.6238V3.43279C88.7233 2.29446 88.6604 1.15429 88.4893 0.0279446L84.9905 0.826307C85.1372 2.12806 85.1999 3.43794 85.1784 4.74775V14.5161C85.0717 15.505 85.1758 16.5054 85.4836 17.4513C85.7393 18.0291 86.168 18.5133 86.7105 18.8372C87.2531 19.161 87.8828 19.3085 88.5128 19.2593C89.2113 19.2634 89.9043 19.1359 90.5556 18.8836V18.9306ZM82.4076 14.7274C82.4264 13.9263 82.1786 13.1416 81.7031 12.4966C81.0456 11.7 80.1177 11.1734 79.0967 11.0173L77.4999 10.6181C76.3024 10.3129 75.8562 9.96063 75.8562 9.27966C75.8562 8.5987 76.5372 8.01171 77.5234 8.01171C78.6567 8.05486 79.7618 8.3775 80.7403 8.95096L81.8675 6.60281C80.4286 5.81009 78.814 5.39027 77.1712 5.38173C74.1421 5.38173 72.1227 7.09589 72.1227 9.65538C72.1154 10.4947 72.3698 11.3155 72.8506 12.0035C73.4821 12.6695 74.3009 13.128 75.1987 13.3185L76.7485 13.6003C78.1339 13.8586 78.7679 14.3282 78.7679 15.2205C78.7532 15.4325 78.6962 15.6395 78.6004 15.8292C78.5047 16.019 78.372 16.1877 78.2101 16.3255C78.0483 16.4633 77.8605 16.5673 77.6579 16.6316C77.4553 16.6959 77.242 16.7191 77.0303 16.6998C75.4836 16.5669 73.9926 16.0591 72.6862 15.2205L71.4417 17.733C73.0662 18.6483 74.8853 19.1634 76.7485 19.2359C80.0829 19.2359 82.3371 17.4043 82.3371 14.6805L82.4076 14.7274ZM68.9761 18.8367V9.25623C68.9973 8.62764 68.9099 8.00008 68.7178 7.40117C68.4426 6.80671 67.996 6.30801 67.4353 5.96912C66.8747 5.63023 66.2256 5.46661 65.5713 5.49918C64.7561 5.50739 63.9533 5.70003 63.2232 6.06271C62.692 6.35547 62.182 6.68505 61.6968 7.04896C61.6847 6.46972 61.523 5.90344 61.2272 5.40523L58.1746 6.27403C58.499 7.26665 58.6577 8.30592 58.6443 9.35011V18.7427H62.0726V9.46756C62.7016 8.82415 63.5286 8.41068 64.4207 8.29348C65.313 8.29348 65.5713 8.73958 65.5713 10.2189V18.7427L68.9761 18.8367ZM52.3982 10.853H48.5942C48.5942 9.0214 49.3456 8.01171 50.6371 8.01171C50.9349 7.99329 51.2323 8.05292 51.5 8.1847C51.7677 8.31649 51.9964 8.51582 52.1634 8.76307C52.4894 9.36631 52.6284 10.053 52.5625 10.7355L52.3982 10.853ZM55.9439 13.342V12.5671C56.0582 11.5441 55.9631 10.5087 55.6643 9.52367C55.3656 8.53866 54.8695 7.62477 54.2063 6.83764C53.1744 5.90151 51.8182 5.40446 50.4257 5.45217C49.6524 5.4175 48.8812 5.55791 48.1697 5.86285C47.4582 6.16779 46.8247 6.62937 46.3165 7.21328C45.1092 8.66057 44.5189 10.5243 44.6728 12.4027C44.5755 13.2678 44.6643 14.1435 44.9332 14.9714C45.2022 15.7993 45.645 16.5601 46.2321 17.2027C46.8192 17.8454 47.5369 18.3552 48.3372 18.6977C49.1374 19.0403 50.0016 19.2077 50.8719 19.1889C52.6792 19.1968 54.4292 18.5552 55.803 17.3808L54.4646 15.3144C53.5562 16.1387 52.38 16.6058 51.1537 16.6294C49.3926 16.6294 48.3829 15.4788 48.3829 13.4594V13.342H55.9439ZM39.2016 10.853H35.4445C35.4445 9.0214 36.196 8.01171 37.4874 8.01171C37.7856 7.99089 38.0839 8.04941 38.352 8.18141C38.6201 8.3134 38.8484 8.5141 39.0137 8.76307C39.3397 9.36631 39.4787 10.053 39.4129 10.7355L39.2016 10.853ZM42.7473 13.342V12.5671C42.8616 11.5441 42.7665 10.5087 42.4677 9.52367C42.169 8.53866 41.6729 7.62477 41.0097 6.83764C39.9791 5.89934 38.622 5.40195 37.2291 5.45217C36.4558 5.4175 35.6846 5.55791 34.9731 5.86285C34.2616 6.16779 33.6281 6.62937 33.1199 7.21328C31.9126 8.66057 31.3223 10.5243 31.4762 12.4027C31.3397 13.2958 31.4031 14.208 31.6619 15.0737C31.9207 15.9393 32.3683 16.7367 32.9726 17.4083C33.5768 18.08 34.3226 18.6091 35.1562 18.9576C35.9897 19.3061 36.8902 19.4653 37.7927 19.4237C39.6 19.4317 41.35 18.79 42.7238 17.6156L41.3854 15.5493C40.477 16.3735 39.3008 16.8406 38.0745 16.8642C36.3134 16.8642 35.3037 15.7136 35.3037 13.6942V13.5768L42.7473 13.342ZM29.1984 17.8035C28.6906 17.1264 28.4185 16.3017 28.4236 15.4553V5.45217L25.1362 6.13315V15.3379C24.9243 15.7146 24.618 16.0295 24.2474 16.2518C23.8769 16.4741 23.4548 16.5962 23.0228 16.6059C22.7874 16.6164 22.5534 16.5657 22.3435 16.4587C22.1336 16.3517 21.955 16.1921 21.8253 15.9954C21.5781 15.3037 21.482 14.567 21.5435 13.8351V5.42873L18.1621 6.06271V14.4456C18.1045 15.3242 18.1999 16.2061 18.4439 17.052C18.7981 17.7528 19.3545 18.3311 20.0411 18.7121C20.7277 19.0931 21.5128 19.2592 22.2949 19.1889C23.5667 19.232 24.8052 18.7771 25.7467 17.9208C25.9624 18.4401 26.3206 18.8879 26.7799 19.2124L29.1984 17.8035ZM11.2586 10.0311C11.2586 14.563 10.2254 16.4416 7.73635 16.4416C6.9852 16.4656 6.24563 16.252 5.62303 15.831C4.54288 15.0561 4.02628 13.1541 4.02628 10.078C3.94596 8.44873 4.25169 6.82352 4.91858 5.33479C5.19859 4.84966 5.60303 4.44811 6.09013 4.17153C6.57722 3.89496 7.12931 3.75337 7.68939 3.7615C8.39551 3.75588 9.08385 3.98279 9.64825 4.40715C10.2127 4.83151 10.6218 5.42974 10.8124 6.10965C11.159 7.45862 11.3093 8.85055 11.2586 10.2424V10.0311ZM17.2464 19.7994C16.726 19.8844 16.2002 19.9315 15.6731 19.9403C14.8842 19.8877 14.123 19.6285 13.4658 19.1889C12.9713 18.8415 12.4445 18.5427 11.8926 18.2966C13.1052 17.3293 14.0593 16.0768 14.6698 14.6509C15.2803 13.225 15.5282 11.6701 15.3913 10.125C15.3913 4.55992 12.4796 1.10815 7.73635 1.10815C6.45527 1.09505 5.19017 1.39319 4.04975 1.97695C2.69355 2.87211 1.60446 4.11714 0.89765 5.58037C0.190839 7.04359 -0.10742 8.67056 0.0344172 10.2894C-0.0393789 12.655 0.679688 14.9776 2.07731 16.8877C2.74926 17.7546 3.62811 18.4389 4.63326 18.8779C5.63841 19.3169 6.73768 19.4965 7.83028 19.4002C9.11136 19.8275 10.328 20.4279 11.4464 21.1848C12.3964 21.8971 13.5273 22.3283 14.7104 22.4293C15.2589 22.4501 15.8049 22.3457 16.3071 22.1241L17.2464 19.7994Z" fill="black"/>
</svg>
