<svg width="201" height="561" viewBox="0 0 201 561" fill="none" xmlns="http://www.w3.org/2000/svg">
<path d="M171.366 225.944H162.3V195.616H171.686C175.696 195.362 179.7 196.199 183.273 198.036C185.407 199.272 187.169 201.059 188.373 203.209C189.577 205.36 190.18 207.796 190.118 210.26C190.118 216.262 188.116 220.143 185.275 222.363C182.433 224.584 178.21 225.944 171.266 225.944H171.366ZM185.275 239.628C181.472 233.847 179.471 231.626 176.009 229.625H176.749C188.537 229.625 196.442 222.463 196.442 210.36C196.504 207.446 195.9 204.556 194.676 201.911C193.452 199.265 191.639 196.935 189.377 195.096C185.915 192.255 181.052 190.554 171.466 190.554H156.517V262.795H162.3V229.725H165.682C170.325 229.725 172.947 232.366 175.689 235.947C182.009 244.455 187.676 253.43 192.639 262.795H200.124C198.223 259.854 190.118 246.89 185.275 239.628Z" fill="#ACA198"/>
<path d="M177.05 170.889C185.795 170.889 191.278 168.668 195.181 164.887C199.083 161.106 200.124 156.465 200.124 148.882V97.5878H194.22V148.142C194.22 153.084 193.6 157.205 191.078 160.566C188.557 163.927 184.214 165.827 177.37 165.827C168.624 165.827 164.622 162.146 162.841 158.985C161.26 156.245 160.839 151.183 160.839 147.082V97.5878H154.836V149.203C154.614 153.579 155.56 157.936 157.577 161.826C161.16 167.728 166.743 170.889 177.05 170.889Z" fill="#ACA198"/>
<path d="M23.2744 169.828H29.4782V141.46L52.9728 97.5477H46.2287L29.8985 128.837L26.5364 135.559C25.4758 133.358 23.8948 129.777 23.3744 128.837L7.36454 97.5477H0L23.2744 141.14V169.828Z" fill="#ACA198"/>
<path d="M99.4616 161.786C93.9027 161.838 88.454 160.235 83.809 157.182C79.1641 154.129 75.5327 149.763 73.3769 144.641C71.2212 139.518 70.6385 133.87 71.703 128.416C72.7676 122.962 75.4312 117.947 79.355 114.01C83.2788 110.074 88.2854 107.393 93.7378 106.309C99.1902 105.225 104.842 105.788 109.974 107.924C115.106 110.061 119.486 113.675 122.556 118.308C125.627 122.94 127.25 128.381 127.219 133.938C127.267 137.6 126.583 141.235 125.206 144.629C123.829 148.022 121.788 151.107 119.202 153.701C116.617 156.296 113.538 158.347 110.148 159.736C106.758 161.124 103.125 161.821 99.4616 161.786ZM99.4616 93.7668C91.5312 93.8102 83.7913 96.2008 77.2185 100.637C70.6458 105.073 65.5346 111.356 62.5299 118.692C59.5251 126.029 58.7615 134.091 60.3353 141.861C61.9091 149.632 65.7497 156.762 71.3728 162.352C76.9958 167.943 84.1491 171.743 91.9304 173.274C99.7117 174.805 107.772 173.997 115.095 170.953C122.418 167.91 128.674 162.766 133.076 156.171C137.477 149.576 139.826 141.826 139.827 133.898C139.784 123.23 135.511 113.013 127.944 105.49C120.377 97.9668 110.134 93.7508 99.4616 93.7668Z" fill="white"/>
<path d="M99.4617 258.774C95.2457 258.814 91.0639 258.013 87.161 256.419C83.2581 254.824 79.7123 252.468 76.731 249.488C73.7496 246.507 71.3926 242.963 69.7976 239.061C68.2027 235.16 67.4018 230.979 67.4419 226.765C67.4419 218.275 70.8154 210.134 76.8203 204.131C82.8251 198.128 90.9695 194.756 99.4617 194.756C107.954 194.756 116.098 198.128 122.103 204.131C128.108 210.134 131.482 218.275 131.482 226.765C131.522 230.979 130.721 235.16 129.126 239.061C127.531 242.963 125.174 246.507 122.192 249.488C119.211 252.468 115.665 254.824 111.762 256.419C107.859 258.013 103.678 258.814 99.4617 258.774ZM99.4617 188.994C92.0133 189.033 84.7435 191.277 78.5696 195.443C72.3957 199.608 67.5944 205.509 64.7714 212.399C61.9484 219.289 61.2302 226.861 62.7075 234.16C64.1848 241.458 67.7914 248.155 73.0722 253.406C78.353 258.657 85.0714 262.227 92.3796 263.665C99.6878 265.103 107.258 264.345 114.136 261.487C121.014 258.628 126.89 253.797 131.025 247.604C135.159 241.41 137.365 234.131 137.365 226.685C137.371 221.717 136.392 216.797 134.487 212.208C132.582 207.62 129.787 203.454 126.263 199.95C122.74 196.447 118.558 193.675 113.958 191.794C109.358 189.914 104.431 188.962 99.4617 188.994Z" fill="#ACA198"/>
<path d="M127.359 0L99.4617 35.21L71.5844 0H36.3026L35.9624 0.440125L99.4617 80.583L162.981 0.440125L162.621 0H127.359Z" fill="white"/>
<path d="M12.5479 262.795H18.5516V227.525H43.1068V222.563H18.5516V195.516H48.37L49.3106 190.554H12.5479V262.795Z" fill="#ACA198"/>
<path d="M85.0527 414.598H5.80369V391.972C17.4909 381.729 31.1394 369.325 40.8454 357.302C49.2906 346.879 54.6739 339.877 54.6739 328.013C54.6739 321.552 51.2718 316.53 43.547 316.53C36.1825 316.53 30.2388 320.291 21.7936 327.833L1.50098 309.508C16.2301 297.305 29.6984 291.003 49.1104 291.003C75.3466 291.003 88.9952 306.107 88.9952 327.293C88.9952 353.701 66.3612 372.926 40.8454 389.631C45.7752 388.846 50.763 388.485 55.7545 388.551H91.877L85.0527 414.598Z" fill="white"/>
<path d="M162.68 321.512C161.059 316.67 159.258 313.97 156.397 313.97C152.975 313.97 150.813 316.49 149.192 321.152C146.871 328.154 145.97 340.197 145.97 355.461C145.729 364.966 146.399 374.472 147.971 383.849C149.392 391.031 151.734 394.973 155.696 394.973C160.359 394.973 162.52 390.971 163.961 384.57C165.582 377.007 165.963 365.884 165.963 352.941C165.963 338.937 164.902 328.154 162.741 321.512H162.68ZM155.736 416.899C129.14 416.899 111.709 392.652 111.709 354.741C111.709 313.609 130.22 292.223 156.277 292.223C182.873 292.223 200.464 313.97 200.464 353.661C200.464 391.031 181.792 416.899 155.736 416.899Z" fill="#FEBE26"/>
<path d="M24.4952 561C19.6522 561 12.2677 560.64 7.60477 560.1L2.22144 536.213C5.89081 536.904 9.61457 537.265 13.3483 537.293C36.3626 537.293 52.7128 531.712 52.7128 515.547C52.7128 506.564 44.9879 504.244 35.6421 504.064C31.0701 504.183 26.5076 504.544 21.9736 505.144V478.737C26.0243 479.311 30.11 479.605 34.2013 479.617C48.0299 479.457 52.2125 475.856 52.2125 466.333C52.2125 460.951 47.7097 457.35 41.0655 457.35C36.6055 457.191 32.1621 457.973 28.0244 459.645C23.8867 461.317 20.1477 463.841 17.0507 467.053L3.14205 444.787C15.2322 436.102 29.7808 431.504 44.6677 431.663C69.4631 431.663 86.6937 444.427 86.6937 464.172C86.6937 477.116 81.4706 486.459 70.3437 491.66C82.9114 495.081 89.3755 506.384 89.3755 518.968C89.3755 544.115 62.4387 560.98 24.5153 560.98" fill="#009AC6"/>
<path d="M190.898 554.718H111.649V532.072C123.316 521.849 136.985 509.445 146.691 497.402C155.136 486.999 160.519 479.997 160.519 468.133C160.519 461.672 157.097 456.63 149.372 456.63C142.008 456.63 136.084 460.411 127.639 467.953L107.326 449.548C122.076 437.325 135.544 431.043 154.956 431.043C181.192 431.043 194.841 446.127 194.841 467.333C194.841 493.741 172.207 512.966 146.691 529.671C151.62 528.885 156.608 528.524 161.6 528.591H197.722L190.898 554.718Z" fill="#F0534D"/>
</svg>
